solid OpenSCAD_Model
  facet normal 0.634459 0.772956 -0
    outer loop
      vertex 29.3284 33.3284 0.0100002
      vertex 28.7223 33.8259 100
      vertex 29.3284 33.3284 100
    endloop
  endfacet
  facet normal 0.634459 0.772956 0
    outer loop
      vertex 28.7223 33.8259 100
      vertex 29.3284 33.3284 0.0100002
      vertex 28.7223 33.8259 0.0100002
    endloop
  endfacet
  facet normal 0.881957 -0.471329 0
    outer loop
      vertex 29.8259 -32.7223 100
      vertex 30.1955 -32.0307 0.0100002
      vertex 30.1955 -32.0307 100
    endloop
  endfacet
  facet normal 0.881957 -0.471329 0
    outer loop
      vertex 30.1955 -32.0307 0.0100002
      vertex 29.8259 -32.7223 100
      vertex 29.8259 -32.7223 0.0100002
    endloop
  endfacet
  facet normal 0.0980643 -0.99518 0
    outer loop
      vertex 26.5 -34.5 0.0100002
      vertex 27.2804 -34.4231 100
      vertex 26.5 -34.5 100
    endloop
  endfacet
  facet normal 0.0980643 -0.99518 0
    outer loop
      vertex 27.2804 -34.4231 100
      vertex 26.5 -34.5 0.0100002
      vertex 27.2804 -34.4231 0.0100002
    endloop
  endfacet
  facet normal 0.99518 -0.0980643 0
    outer loop
      vertex 30.4231 -31.2804 100
      vertex 30.5 -30.5 0.0100002
      vertex 30.5 -30.5 100
    endloop
  endfacet
  facet normal 0.99518 -0.0980643 0
    outer loop
      vertex 30.5 -30.5 0.0100002
      vertex 30.4231 -31.2804 100
      vertex 30.4231 -31.2804 0.0100002
    endloop
  endfacet
  facet normal -0.956941 0.290283 0
    outer loop
      vertex -30.4231 31.2804 0.0100002
      vertex -30.1955 32.0307 100
      vertex -30.1955 32.0307 0.0100002
    endloop
  endfacet
  facet normal -0.956941 0.290283 0
    outer loop
      vertex -30.1955 32.0307 100
      vertex -30.4231 31.2804 0.0100002
      vertex -30.4231 31.2804 100
    endloop
  endfacet
  facet normal -1 0 0
    outer loop
      vertex -30.5 -30.5 0.0100002
      vertex -30.5 30.5 100
      vertex -30.5 30.5 0.0100002
    endloop
  endfacet
  facet normal -1 -0 0
    outer loop
      vertex -30.5 30.5 100
      vertex -30.5 -30.5 0.0100002
      vertex -30.5 -30.5 100
    endloop
  endfacet
  facet normal -0.471329 -0.881957 0
    outer loop
      vertex -28.7223 -33.8259 0.0100002
      vertex -28.0307 -34.1955 100
      vertex -28.7223 -33.8259 100
    endloop
  endfacet
  facet normal -0.471329 -0.881957 -0
    outer loop
      vertex -28.0307 -34.1955 100
      vertex -28.7223 -33.8259 0.0100002
      vertex -28.0307 -34.1955 0.0100002
    endloop
  endfacet
  facet normal -0.99518 -0.0980643 0
    outer loop
      vertex -30.4231 -31.2804 0.0100002
      vertex -30.5 -30.5 100
      vertex -30.5 -30.5 0.0100002
    endloop
  endfacet
  facet normal -0.99518 -0.0980643 0
    outer loop
      vertex -30.5 -30.5 100
      vertex -30.4231 -31.2804 0.0100002
      vertex -30.4231 -31.2804 100
    endloop
  endfacet
  facet normal 0.956941 0.290283 0
    outer loop
      vertex 30.4231 31.2804 100
      vertex 30.1955 32.0307 0.0100002
      vertex 30.1955 32.0307 100
    endloop
  endfacet
  facet normal 0.956941 0.290283 0
    outer loop
      vertex 30.1955 32.0307 0.0100002
      vertex 30.4231 31.2804 100
      vertex 30.4231 31.2804 0.0100002
    endloop
  endfacet
  facet normal 0.956941 -0.290283 0
    outer loop
      vertex 30.1955 -32.0307 100
      vertex 30.4231 -31.2804 0.0100002
      vertex 30.4231 -31.2804 100
    endloop
  endfacet
  facet normal 0.956941 -0.290283 0
    outer loop
      vertex 30.4231 -31.2804 0.0100002
      vertex 30.1955 -32.0307 100
      vertex 30.1955 -32.0307 0.0100002
    endloop
  endfacet
  facet normal 0.772956 0.634459 0
    outer loop
      vertex 29.8259 32.7223 100
      vertex 29.3284 33.3284 0.0100002
      vertex 29.3284 33.3284 100
    endloop
  endfacet
  facet normal 0.772956 0.634459 0
    outer loop
      vertex 29.3284 33.3284 0.0100002
      vertex 29.8259 32.7223 100
      vertex 29.8259 32.7223 0.0100002
    endloop
  endfacet
  facet normal -0.0980643 0.99518 0
    outer loop
      vertex -26.5 34.5 0.0100002
      vertex -27.2804 34.4231 100
      vertex -26.5 34.5 100
    endloop
  endfacet
  facet normal -0.0980643 0.99518 0
    outer loop
      vertex -27.2804 34.4231 100
      vertex -26.5 34.5 0.0100002
      vertex -27.2804 34.4231 0.0100002
    endloop
  endfacet
  facet normal 0.290283 -0.956941 0
    outer loop
      vertex 27.2804 -34.4231 0.0100002
      vertex 28.0307 -34.1955 100
      vertex 27.2804 -34.4231 100
    endloop
  endfacet
  facet normal 0.290283 -0.956941 0
    outer loop
      vertex 28.0307 -34.1955 100
      vertex 27.2804 -34.4231 0.0100002
      vertex 28.0307 -34.1955 0.0100002
    endloop
  endfacet
  facet normal 0 -1 0
    outer loop
      vertex -26.5 -34.5 0.0100002
      vertex 26.5 -34.5 100
      vertex -26.5 -34.5 100
    endloop
  endfacet
  facet normal 0 -1 -0
    outer loop
      vertex 26.5 -34.5 100
      vertex -26.5 -34.5 0.0100002
      vertex 26.5 -34.5 0.0100002
    endloop
  endfacet
  facet normal 1 -0 0
    outer loop
      vertex 30.5 -30.5 100
      vertex 30.5 30.5 0.0100002
      vertex 30.5 30.5 100
    endloop
  endfacet
  facet normal 1 0 0
    outer loop
      vertex 30.5 30.5 0.0100002
      vertex 30.5 -30.5 100
      vertex 30.5 -30.5 0.0100002
    endloop
  endfacet
  facet normal 0.471329 -0.881957 0
    outer loop
      vertex 28.0307 -34.1955 0.0100002
      vertex 28.7223 -33.8259 100
      vertex 28.0307 -34.1955 100
    endloop
  endfacet
  facet normal 0.471329 -0.881957 0
    outer loop
      vertex 28.7223 -33.8259 100
      vertex 28.0307 -34.1955 0.0100002
      vertex 28.7223 -33.8259 0.0100002
    endloop
  endfacet
  facet normal 0.772956 -0.634459 0
    outer loop
      vertex 29.3284 -33.3284 100
      vertex 29.8259 -32.7223 0.0100002
      vertex 29.8259 -32.7223 100
    endloop
  endfacet
  facet normal 0.772956 -0.634459 0
    outer loop
      vertex 29.8259 -32.7223 0.0100002
      vertex 29.3284 -33.3284 100
      vertex 29.3284 -33.3284 0.0100002
    endloop
  endfacet
  facet normal 0.471329 0.881957 -0
    outer loop
      vertex 28.7223 33.8259 0.0100002
      vertex 28.0307 34.1955 100
      vertex 28.7223 33.8259 100
    endloop
  endfacet
  facet normal 0.471329 0.881957 0
    outer loop
      vertex 28.0307 34.1955 100
      vertex 28.7223 33.8259 0.0100002
      vertex 28.0307 34.1955 0.0100002
    endloop
  endfacet
  facet normal 0.99518 0.0980643 0
    outer loop
      vertex 30.5 30.5 100
      vertex 30.4231 31.2804 0.0100002
      vertex 30.4231 31.2804 100
    endloop
  endfacet
  facet normal 0.99518 0.0980643 0
    outer loop
      vertex 30.4231 31.2804 0.0100002
      vertex 30.5 30.5 100
      vertex 30.5 30.5 0.0100002
    endloop
  endfacet
  facet normal 0.881957 0.471329 0
    outer loop
      vertex 30.1955 32.0307 100
      vertex 29.8259 32.7223 0.0100002
      vertex 29.8259 32.7223 100
    endloop
  endfacet
  facet normal 0.881957 0.471329 0
    outer loop
      vertex 29.8259 32.7223 0.0100002
      vertex 30.1955 32.0307 100
      vertex 30.1955 32.0307 0.0100002
    endloop
  endfacet
  facet normal -0.772956 0.634459 0
    outer loop
      vertex -29.8259 32.7223 0.0100002
      vertex -29.3284 33.3284 100
      vertex -29.3284 33.3284 0.0100002
    endloop
  endfacet
  facet normal -0.772956 0.634459 0
    outer loop
      vertex -29.3284 33.3284 100
      vertex -29.8259 32.7223 0.0100002
      vertex -29.8259 32.7223 100
    endloop
  endfacet
  facet normal -0.99518 0.0980643 0
    outer loop
      vertex -30.5 30.5 0.0100002
      vertex -30.4231 31.2804 100
      vertex -30.4231 31.2804 0.0100002
    endloop
  endfacet
  facet normal -0.99518 0.0980643 0
    outer loop
      vertex -30.4231 31.2804 100
      vertex -30.5 30.5 0.0100002
      vertex -30.5 30.5 100
    endloop
  endfacet
  facet normal -0.634459 -0.772956 0
    outer loop
      vertex -29.3284 -33.3284 0.0100002
      vertex -28.7223 -33.8259 100
      vertex -29.3284 -33.3284 100
    endloop
  endfacet
  facet normal -0.634459 -0.772956 -0
    outer loop
      vertex -28.7223 -33.8259 100
      vertex -29.3284 -33.3284 0.0100002
      vertex -28.7223 -33.8259 0.0100002
    endloop
  endfacet
  facet normal 0 1 -0
    outer loop
      vertex 26.5 34.5 0.0100002
      vertex -26.5 34.5 100
      vertex 26.5 34.5 100
    endloop
  endfacet
  facet normal 0 1 0
    outer loop
      vertex -26.5 34.5 100
      vertex 26.5 34.5 0.0100002
      vertex -26.5 34.5 0.0100002
    endloop
  endfacet
  facet normal 0.634459 -0.772956 0
    outer loop
      vertex 28.7223 -33.8259 0.0100002
      vertex 29.3284 -33.3284 100
      vertex 28.7223 -33.8259 100
    endloop
  endfacet
  facet normal 0.634459 -0.772956 0
    outer loop
      vertex 29.3284 -33.3284 100
      vertex 28.7223 -33.8259 0.0100002
      vertex 29.3284 -33.3284 0.0100002
    endloop
  endfacet
  facet normal -0.956941 -0.290283 0
    outer loop
      vertex -30.1955 -32.0307 0.0100002
      vertex -30.4231 -31.2804 100
      vertex -30.4231 -31.2804 0.0100002
    endloop
  endfacet
  facet normal -0.956941 -0.290283 0
    outer loop
      vertex -30.4231 -31.2804 100
      vertex -30.1955 -32.0307 0.0100002
      vertex -30.1955 -32.0307 100
    endloop
  endfacet
  facet normal -0.0980643 -0.99518 0
    outer loop
      vertex -27.2804 -34.4231 0.0100002
      vertex -26.5 -34.5 100
      vertex -27.2804 -34.4231 100
    endloop
  endfacet
  facet normal -0.0980643 -0.99518 -0
    outer loop
      vertex -26.5 -34.5 100
      vertex -27.2804 -34.4231 0.0100002
      vertex -26.5 -34.5 0.0100002
    endloop
  endfacet
  facet normal 0.0980643 0.99518 -0
    outer loop
      vertex 27.2804 34.4231 0.0100002
      vertex 26.5 34.5 100
      vertex 27.2804 34.4231 100
    endloop
  endfacet
  facet normal 0.0980643 0.99518 0
    outer loop
      vertex 26.5 34.5 100
      vertex 27.2804 34.4231 0.0100002
      vertex 26.5 34.5 0.0100002
    endloop
  endfacet
  facet normal 0 0 1
    outer loop
      vertex 27.1518 28.9446 100
      vertex 30.5 30.5 100
      vertex 30.4231 31.2804 100
    endloop
  endfacet
  facet normal 0 0 1
    outer loop
      vertex 30.5 30.5 100
      vertex 28.5 24.5 100
      vertex 30.5 -30.5 100
    endloop
  endfacet
  facet normal 0 0 1
    outer loop
      vertex 26.1569 30.1569 100
      vertex 30.4231 31.2804 100
      vertex 30.1955 32.0307 100
    endloop
  endfacet
  facet normal -0 0 1
    outer loop
      vertex 28.5 -24.5 100
      vertex 30.5 -30.5 100
      vertex 28.5 24.5 100
    endloop
  endfacet
  facet normal 0 0 1
    outer loop
      vertex 26.1569 30.1569 100
      vertex 30.1955 32.0307 100
      vertex 29.8259 32.7223 100
    endloop
  endfacet
  facet normal -0 0 1
    outer loop
      vertex 28.3463 -26.0607 100
      vertex 30.5 -30.5 100
      vertex 28.5 -24.5 100
    endloop
  endfacet
  facet normal 0 0 1
    outer loop
      vertex 26.1569 30.1569 100
      vertex 29.8259 32.7223 100
      vertex 29.3284 33.3284 100
    endloop
  endfacet
  facet normal -0 0 1
    outer loop
      vertex 27.891 -27.5615 100
      vertex 30.5 -30.5 100
      vertex 28.3463 -26.0607 100
    endloop
  endfacet
  facet normal 0 0 1
    outer loop
      vertex 26.1569 30.1569 100
      vertex 29.3284 33.3284 100
      vertex 28.7223 33.8259 100
    endloop
  endfacet
  facet normal -0 0 1
    outer loop
      vertex 27.1518 -28.9446 100
      vertex 30.5 -30.5 100
      vertex 27.891 -27.5615 100
    endloop
  endfacet
  facet normal 0 0 1
    outer loop
      vertex 30.5 -30.5 100
      vertex 27.1518 -28.9446 100
      vertex 30.4231 -31.2804 100
    endloop
  endfacet
  facet normal 0 0 1
    outer loop
      vertex 30.5 30.5 100
      vertex 28.3463 26.0607 100
      vertex 28.5 24.5 100
    endloop
  endfacet
  facet normal 0 0 1
    outer loop
      vertex 26.1569 30.1569 100
      vertex 28.7223 33.8259 100
      vertex 28.0307 34.1955 100
    endloop
  endfacet
  facet normal 0 0 1
    outer loop
      vertex 30.5 30.5 100
      vertex 27.891 27.5615 100
      vertex 28.3463 26.0607 100
    endloop
  endfacet
  facet normal 0 0 1
    outer loop
      vertex 26.1569 30.1569 100
      vertex 28.0307 34.1955 100
      vertex 27.2804 34.4231 100
    endloop
  endfacet
  facet normal 0 0 1
    outer loop
      vertex 30.5 30.5 100
      vertex 27.1518 28.9446 100
      vertex 27.891 27.5615 100
    endloop
  endfacet
  facet normal 0 0 1
    outer loop
      vertex 24.9446 31.1518 100
      vertex 27.2804 34.4231 100
      vertex 26.5 34.5 100
    endloop
  endfacet
  facet normal 0 0 1
    outer loop
      vertex 30.4231 31.2804 100
      vertex 26.1569 30.1569 100
      vertex 27.1518 28.9446 100
    endloop
  endfacet
  facet normal 0 0 1
    outer loop
      vertex 27.2804 34.4231 100
      vertex 24.9446 31.1518 100
      vertex 26.1569 30.1569 100
    endloop
  endfacet
  facet normal 0 0 1
    outer loop
      vertex 26.5 34.5 100
      vertex 23.5615 31.891 100
      vertex 24.9446 31.1518 100
    endloop
  endfacet
  facet normal 0 0 1
    outer loop
      vertex 26.5 34.5 100
      vertex 22.0607 32.3463 100
      vertex 23.5615 31.891 100
    endloop
  endfacet
  facet normal 0 0 1
    outer loop
      vertex 26.5 34.5 100
      vertex 20.5 32.5 100
      vertex 22.0607 32.3463 100
    endloop
  endfacet
  facet normal 0 0 1
    outer loop
      vertex 26.5 34.5 100
      vertex 3.5 32.5 100
      vertex 20.5 32.5 100
    endloop
  endfacet
  facet normal 0 0 1
    outer loop
      vertex 3.5 32.5 100
      vertex 1.5 32.5 100
      vertex 3.5 -32.5 100
    endloop
  endfacet
  facet normal 0 0 1
    outer loop
      vertex 26.5 34.5 100
      vertex 1.5 32.5 100
      vertex 3.5 32.5 100
    endloop
  endfacet
  facet normal -0 0 1
    outer loop
      vertex -26.5 34.5 100
      vertex 1.5 32.5 100
      vertex 26.5 34.5 100
    endloop
  endfacet
  facet normal 0 0 1
    outer loop
      vertex 1.5 32.5 100
      vertex -26.5 34.5 100
      vertex -20.5 32.5 100
    endloop
  endfacet
  facet normal 0 0 1
    outer loop
      vertex -26.5 34.5 100
      vertex -22.0607 32.3463 100
      vertex -20.5 32.5 100
    endloop
  endfacet
  facet normal 0 0 1
    outer loop
      vertex -26.5 34.5 100
      vertex -23.5615 31.891 100
      vertex -22.0607 32.3463 100
    endloop
  endfacet
  facet normal 0 0 1
    outer loop
      vertex -26.5 34.5 100
      vertex -24.9446 31.1518 100
      vertex -23.5615 31.891 100
    endloop
  endfacet
  facet normal -0 0 1
    outer loop
      vertex -27.2804 34.4231 100
      vertex -24.9446 31.1518 100
      vertex -26.5 34.5 100
    endloop
  endfacet
  facet normal 0 0 1
    outer loop
      vertex -24.9446 31.1518 100
      vertex -27.2804 34.4231 100
      vertex -26.1569 30.1569 100
    endloop
  endfacet
  facet normal -0 0 1
    outer loop
      vertex -28.0307 34.1955 100
      vertex -26.1569 30.1569 100
      vertex -27.2804 34.4231 100
    endloop
  endfacet
  facet normal -0 0 1
    outer loop
      vertex -28.7223 33.8259 100
      vertex -26.1569 30.1569 100
      vertex -28.0307 34.1955 100
    endloop
  endfacet
  facet normal -0 0 1
    outer loop
      vertex -29.3284 33.3284 100
      vertex -26.1569 30.1569 100
      vertex -28.7223 33.8259 100
    endloop
  endfacet
  facet normal -0 0 1
    outer loop
      vertex -29.8259 32.7223 100
      vertex -26.1569 30.1569 100
      vertex -29.3284 33.3284 100
    endloop
  endfacet
  facet normal 0 0 1
    outer loop
      vertex -27.891 27.5615 100
      vertex -30.5 30.5 100
      vertex -28.3463 26.0607 100
    endloop
  endfacet
  facet normal 0 0 1
    outer loop
      vertex -28.3463 26.0607 100
      vertex -30.5 30.5 100
      vertex -28.5 24.5 100
    endloop
  endfacet
  facet normal -0 0 1
    outer loop
      vertex -30.1955 32.0307 100
      vertex -26.1569 30.1569 100
      vertex -29.8259 32.7223 100
    endloop
  endfacet
  facet normal -0 0 1
    outer loop
      vertex 26.1569 -30.1569 100
      vertex 30.4231 -31.2804 100
      vertex 27.1518 -28.9446 100
    endloop
  endfacet
  facet normal 0 0 1
    outer loop
      vertex 30.4231 -31.2804 100
      vertex 26.1569 -30.1569 100
      vertex 30.1955 -32.0307 100
    endloop
  endfacet
  facet normal 0 0 1
    outer loop
      vertex 30.1955 -32.0307 100
      vertex 26.1569 -30.1569 100
      vertex 29.8259 -32.7223 100
    endloop
  endfacet
  facet normal 0 0 1
    outer loop
      vertex 29.8259 -32.7223 100
      vertex 26.1569 -30.1569 100
      vertex 29.3284 -33.3284 100
    endloop
  endfacet
  facet normal 0 0 1
    outer loop
      vertex 29.3284 -33.3284 100
      vertex 26.1569 -30.1569 100
      vertex 28.7223 -33.8259 100
    endloop
  endfacet
  facet normal 0 0 1
    outer loop
      vertex 28.7223 -33.8259 100
      vertex 26.1569 -30.1569 100
      vertex 28.0307 -34.1955 100
    endloop
  endfacet
  facet normal 0 0 1
    outer loop
      vertex 28.0307 -34.1955 100
      vertex 26.1569 -30.1569 100
      vertex 27.2804 -34.4231 100
    endloop
  endfacet
  facet normal -0 0 1
    outer loop
      vertex 24.9446 -31.1518 100
      vertex 27.2804 -34.4231 100
      vertex 26.1569 -30.1569 100
    endloop
  endfacet
  facet normal 0 0 1
    outer loop
      vertex 27.2804 -34.4231 100
      vertex 24.9446 -31.1518 100
      vertex 26.5 -34.5 100
    endloop
  endfacet
  facet normal -0 0 1
    outer loop
      vertex 23.5615 -31.891 100
      vertex 26.5 -34.5 100
      vertex 24.9446 -31.1518 100
    endloop
  endfacet
  facet normal -0 0 1
    outer loop
      vertex 22.0607 -32.3463 100
      vertex 26.5 -34.5 100
      vertex 23.5615 -31.891 100
    endloop
  endfacet
  facet normal -0 0 1
    outer loop
      vertex 20.5 -32.5 100
      vertex 26.5 -34.5 100
      vertex 22.0607 -32.3463 100
    endloop
  endfacet
  facet normal -0 0 1
    outer loop
      vertex 3.5 -32.5 100
      vertex 26.5 -34.5 100
      vertex 20.5 -32.5 100
    endloop
  endfacet
  facet normal 0 0 1
    outer loop
      vertex 1.5 -32.5 100
      vertex 3.5 -32.5 100
      vertex 1.5 32.5 100
    endloop
  endfacet
  facet normal -0 0 1
    outer loop
      vertex 1.5 -32.5 100
      vertex 26.5 -34.5 100
      vertex 3.5 -32.5 100
    endloop
  endfacet
  facet normal 0 0 1
    outer loop
      vertex -26.5 -34.5 100
      vertex 1.5 -32.5 100
      vertex -20.5 -32.5 100
    endloop
  endfacet
  facet normal 0 0 1
    outer loop
      vertex 1.5 -32.5 100
      vertex -26.5 -34.5 100
      vertex 26.5 -34.5 100
    endloop
  endfacet
  facet normal 0 0 1
    outer loop
      vertex -22.0607 -32.3463 100
      vertex -26.5 -34.5 100
      vertex -20.5 -32.5 100
    endloop
  endfacet
  facet normal 0 0 1
    outer loop
      vertex -23.5615 -31.891 100
      vertex -26.5 -34.5 100
      vertex -22.0607 -32.3463 100
    endloop
  endfacet
  facet normal 0 0 1
    outer loop
      vertex -24.9446 -31.1518 100
      vertex -26.5 -34.5 100
      vertex -23.5615 -31.891 100
    endloop
  endfacet
  facet normal 0 0 1
    outer loop
      vertex -27.2804 -34.4231 100
      vertex -24.9446 -31.1518 100
      vertex -26.1569 -30.1569 100
    endloop
  endfacet
  facet normal 0 0 1
    outer loop
      vertex -30.4231 -31.2804 100
      vertex -26.1569 -30.1569 100
      vertex -27.1518 -28.9446 100
    endloop
  endfacet
  facet normal 0 0 1
    outer loop
      vertex -24.9446 -31.1518 100
      vertex -27.2804 -34.4231 100
      vertex -26.5 -34.5 100
    endloop
  endfacet
  facet normal 0 0 1
    outer loop
      vertex -30.5 -30.5 100
      vertex -27.1518 -28.9446 100
      vertex -27.891 -27.5615 100
    endloop
  endfacet
  facet normal 0 0 1
    outer loop
      vertex -26.1569 -30.1569 100
      vertex -28.0307 -34.1955 100
      vertex -27.2804 -34.4231 100
    endloop
  endfacet
  facet normal 0 0 1
    outer loop
      vertex -30.5 -30.5 100
      vertex -27.891 -27.5615 100
      vertex -28.3463 -26.0607 100
    endloop
  endfacet
  facet normal 0 0 1
    outer loop
      vertex -30.5 -30.5 100
      vertex -28.3463 -26.0607 100
      vertex -28.5 -24.5 100
    endloop
  endfacet
  facet normal 0 0 1
    outer loop
      vertex -27.1518 -28.9446 100
      vertex -30.5 -30.5 100
      vertex -30.4231 -31.2804 100
    endloop
  endfacet
  facet normal 0 0 1
    outer loop
      vertex -28.5 24.5 100
      vertex -30.5 30.5 100
      vertex -28.5 -24.5 100
    endloop
  endfacet
  facet normal -0 0 1
    outer loop
      vertex -30.4231 31.2804 100
      vertex -26.1569 30.1569 100
      vertex -30.1955 32.0307 100
    endloop
  endfacet
  facet normal 0 0 1
    outer loop
      vertex -30.5 -30.5 100
      vertex -28.5 -24.5 100
      vertex -30.5 30.5 100
    endloop
  endfacet
  facet normal 0 0 1
    outer loop
      vertex -26.1569 30.1569 100
      vertex -30.4231 31.2804 100
      vertex -27.1518 28.9446 100
    endloop
  endfacet
  facet normal 0 0 1
    outer loop
      vertex -26.1569 -30.1569 100
      vertex -28.7223 -33.8259 100
      vertex -28.0307 -34.1955 100
    endloop
  endfacet
  facet normal -0 0 1
    outer loop
      vertex -30.5 30.5 100
      vertex -27.1518 28.9446 100
      vertex -30.4231 31.2804 100
    endloop
  endfacet
  facet normal 0 0 1
    outer loop
      vertex -26.1569 -30.1569 100
      vertex -29.3284 -33.3284 100
      vertex -28.7223 -33.8259 100
    endloop
  endfacet
  facet normal 0 0 1
    outer loop
      vertex -27.1518 28.9446 100
      vertex -30.5 30.5 100
      vertex -27.891 27.5615 100
    endloop
  endfacet
  facet normal 0 0 1
    outer loop
      vertex -26.1569 -30.1569 100
      vertex -29.8259 -32.7223 100
      vertex -29.3284 -33.3284 100
    endloop
  endfacet
  facet normal 0 0 1
    outer loop
      vertex -26.1569 -30.1569 100
      vertex -30.1955 -32.0307 100
      vertex -29.8259 -32.7223 100
    endloop
  endfacet
  facet normal 0 0 1
    outer loop
      vertex -26.1569 -30.1569 100
      vertex -30.4231 -31.2804 100
      vertex -30.1955 -32.0307 100
    endloop
  endfacet
  facet normal 0.290283 0.956941 -0
    outer loop
      vertex 28.0307 34.1955 0.0100002
      vertex 27.2804 34.4231 100
      vertex 28.0307 34.1955 100
    endloop
  endfacet
  facet normal 0.290283 0.956941 0
    outer loop
      vertex 27.2804 34.4231 100
      vertex 28.0307 34.1955 0.0100002
      vertex 27.2804 34.4231 0.0100002
    endloop
  endfacet
  facet normal -0.634459 0.772956 0
    outer loop
      vertex -28.7223 33.8259 0.0100002
      vertex -29.3284 33.3284 100
      vertex -28.7223 33.8259 100
    endloop
  endfacet
  facet normal -0.634459 0.772956 0
    outer loop
      vertex -29.3284 33.3284 100
      vertex -28.7223 33.8259 0.0100002
      vertex -29.3284 33.3284 0.0100002
    endloop
  endfacet
  facet normal -0.881957 -0.471329 0
    outer loop
      vertex -29.8259 -32.7223 0.0100002
      vertex -30.1955 -32.0307 100
      vertex -30.1955 -32.0307 0.0100002
    endloop
  endfacet
  facet normal -0.881957 -0.471329 0
    outer loop
      vertex -30.1955 -32.0307 100
      vertex -29.8259 -32.7223 0.0100002
      vertex -29.8259 -32.7223 100
    endloop
  endfacet
  facet normal -0.772956 -0.634459 0
    outer loop
      vertex -29.3284 -33.3284 0.0100002
      vertex -29.8259 -32.7223 100
      vertex -29.8259 -32.7223 0.0100002
    endloop
  endfacet
  facet normal -0.772956 -0.634459 0
    outer loop
      vertex -29.8259 -32.7223 100
      vertex -29.3284 -33.3284 0.0100002
      vertex -29.3284 -33.3284 100
    endloop
  endfacet
  facet normal -0.290283 -0.956941 0
    outer loop
      vertex -28.0307 -34.1955 0.0100002
      vertex -27.2804 -34.4231 100
      vertex -28.0307 -34.1955 100
    endloop
  endfacet
  facet normal -0.290283 -0.956941 -0
    outer loop
      vertex -27.2804 -34.4231 100
      vertex -28.0307 -34.1955 0.0100002
      vertex -27.2804 -34.4231 0.0100002
    endloop
  endfacet
  facet normal -0.471329 0.881957 0
    outer loop
      vertex -28.0307 34.1955 0.0100002
      vertex -28.7223 33.8259 100
      vertex -28.0307 34.1955 100
    endloop
  endfacet
  facet normal -0.471329 0.881957 0
    outer loop
      vertex -28.7223 33.8259 100
      vertex -28.0307 34.1955 0.0100002
      vertex -28.7223 33.8259 0.0100002
    endloop
  endfacet
  facet normal -0.881957 0.471329 0
    outer loop
      vertex -30.1955 32.0307 0.0100002
      vertex -29.8259 32.7223 100
      vertex -29.8259 32.7223 0.0100002
    endloop
  endfacet
  facet normal -0.881957 0.471329 0
    outer loop
      vertex -29.8259 32.7223 100
      vertex -30.1955 32.0307 0.0100002
      vertex -30.1955 32.0307 100
    endloop
  endfacet
  facet normal -0.290283 0.956941 0
    outer loop
      vertex -27.2804 34.4231 0.0100002
      vertex -28.0307 34.1955 100
      vertex -27.2804 34.4231 100
    endloop
  endfacet
  facet normal -0.290283 0.956941 0
    outer loop
      vertex -28.0307 34.1955 100
      vertex -27.2804 34.4231 0.0100002
      vertex -28.0307 34.1955 0.0100002
    endloop
  endfacet
  facet normal 0.231048 0.761767 0.60525
    outer loop
      vertex 49.2235 45.2116 -19.99
      vertex 26.0607 36.3463 0.0100002
      vertex 49.5987 45.0978 -19.99
    endloop
  endfacet
  facet normal -0.709165 -0.0698396 0.701575
    outer loop
      vertex -32.5 -28.5 0.0100002
      vertex -50.7949 -43.6402 -19.99
      vertex -32.3463 -30.0607 0.0100002
    endloop
  endfacet
  facet normal -0.43899 -0.534837 0.721967
    outer loop
      vertex -28.9446 -35.1518 0.0100002
      vertex -50.2475 -44.6642 -19.99
      vertex -49.9445 -44.9129 -19.99
    endloop
  endfacet
  facet normal -0.517414 0.42472 0.742897
    outer loop
      vertex -50.2475 44.6642 -19.99
      vertex -50.4963 44.3611 -19.99
      vertex -31.1518 32.9446 0.0100002
    endloop
  endfacet
  facet normal -0.650208 -0.197255 0.733703
    outer loop
      vertex -32.3463 -30.0607 0.0100002
      vertex -50.7949 -43.6402 -19.99
      vertex -31.891 -31.5615 0.0100002
    endloop
  endfacet
  facet normal 0.517456 -0.424661 0.742902
    outer loop
      vertex 31.1518 -32.9446 0.0100002
      vertex 30.1569 -34.1569 0.0100002
      vertex 50.2475 -44.6642 -19.99
    endloop
  endfacet
  facet normal 0.517456 0.424661 0.742902
    outer loop
      vertex 50.2475 44.6642 -19.99
      vertex 30.1569 34.1569 0.0100002
      vertex 31.1518 32.9446 0.0100002
    endloop
  endfacet
  facet normal -0.650226 -0.197217 0.733697
    outer loop
      vertex -31.891 -31.5615 0.0100002
      vertex -50.7949 -43.6402 -19.99
      vertex -50.6811 -44.0154 -19.99
    endloop
  endfacet
  facet normal 0.34606 -0.647202 0.679243
    outer loop
      vertex 49.9445 -44.9129 -19.99
      vertex 27.5615 -35.891 0.0100002
      vertex 49.5987 -45.0978 -19.99
    endloop
  endfacet
  facet normal 0.0857072 0.870288 0.485029
    outer loop
      vertex 49.2235 45.2116 -19.99
      vertex 24.5 36.5 0.0100002
      vertex 26.0607 36.3463 0.0100002
    endloop
  endfacet
  facet normal -0.231048 -0.761767 0.60525
    outer loop
      vertex -26.0607 -36.3463 0.0100002
      vertex -49.5987 -45.0978 -19.99
      vertex -49.2235 -45.2116 -19.99
    endloop
  endfacet
  facet normal 0.737155 -0 0.675724
    outer loop
      vertex 32.5 -28.5 0.0100002
      vertex 50.8333 43.25 -19.99
      vertex 32.5 28.5 0.0100002
    endloop
  endfacet
  facet normal 0.737155 0 0.675724
    outer loop
      vertex 50.8333 43.25 -19.99
      vertex 32.5 -28.5 0.0100002
      vertex 50.8333 -43.25 -19.99
    endloop
  endfacet
  facet normal -0.231087 -0.761731 0.605281
    outer loop
      vertex -27.5615 -35.891 0.0100002
      vertex -49.5987 -45.0978 -19.99
      vertex -26.0607 -36.3463 0.0100002
    endloop
  endfacet
  facet normal -0.709165 0.0698396 0.701575
    outer loop
      vertex -32.3463 30.0607 0.0100002
      vertex -50.7949 43.6402 -19.99
      vertex -32.5 28.5 0.0100002
    endloop
  endfacet
  facet normal -0.650226 0.197217 0.733697
    outer loop
      vertex -50.6811 44.0154 -19.99
      vertex -50.7949 43.6402 -19.99
      vertex -31.891 31.5615 0.0100002
    endloop
  endfacet
  facet normal 0.650226 -0.197217 0.733697
    outer loop
      vertex 50.7949 -43.6402 -19.99
      vertex 31.891 -31.5615 0.0100002
      vertex 50.6811 -44.0154 -19.99
    endloop
  endfacet
  facet normal -0.586776 -0.313603 0.746557
    outer loop
      vertex -31.891 -31.5615 0.0100002
      vertex -50.4963 -44.3611 -19.99
      vertex -31.1518 -32.9446 0.0100002
    endloop
  endfacet
  facet normal -0.737155 0 0.675724
    outer loop
      vertex -50.8333 43.25 -19.99
      vertex -32.5 -28.5 0.0100002
      vertex -32.5 28.5 0.0100002
    endloop
  endfacet
  facet normal -0.737155 0 0.675724
    outer loop
      vertex -32.5 -28.5 0.0100002
      vertex -50.8333 43.25 -19.99
      vertex -50.8333 -43.25 -19.99
    endloop
  endfacet
  facet normal -0.709187 -0.0697918 0.701558
    outer loop
      vertex -32.5 -28.5 0.0100002
      vertex -50.8333 -43.25 -19.99
      vertex -50.7949 -43.6402 -19.99
    endloop
  endfacet
  facet normal -0.0856496 0.870324 0.484974
    outer loop
      vertex -48.8333 45.25 -19.99
      vertex -49.2235 45.2116 -19.99
      vertex -24.5 36.5 0.0100002
    endloop
  endfacet
  facet normal -0.586776 0.313603 0.746557
    outer loop
      vertex -31.1518 32.9446 0.0100002
      vertex -50.4963 44.3611 -19.99
      vertex -31.891 31.5615 0.0100002
    endloop
  endfacet
  facet normal -0.650208 0.197255 0.733703
    outer loop
      vertex -31.891 31.5615 0.0100002
      vertex -50.7949 43.6402 -19.99
      vertex -32.3463 30.0607 0.0100002
    endloop
  endfacet
  facet normal 0.231087 -0.761731 0.605281
    outer loop
      vertex 27.5615 -35.891 0.0100002
      vertex 26.0607 -36.3463 0.0100002
      vertex 49.5987 -45.0978 -19.99
    endloop
  endfacet
  facet normal 0.517414 -0.42472 0.742897
    outer loop
      vertex 50.4963 -44.3611 -19.99
      vertex 31.1518 -32.9446 0.0100002
      vertex 50.2475 -44.6642 -19.99
    endloop
  endfacet
  facet normal 0.43896 0.534879 0.721955
    outer loop
      vertex 50.2475 44.6642 -19.99
      vertex 28.9446 35.1518 0.0100002
      vertex 30.1569 34.1569 0.0100002
    endloop
  endfacet
  facet normal 0.34596 -0.647318 0.679184
    outer loop
      vertex 28.9446 -35.1518 0.0100002
      vertex 27.5615 -35.891 0.0100002
      vertex 49.9445 -44.9129 -19.99
    endloop
  endfacet
  facet normal 0.709187 -0.0697918 0.701558
    outer loop
      vertex 50.8333 -43.25 -19.99
      vertex 32.5 -28.5 0.0100002
      vertex 50.7949 -43.6402 -19.99
    endloop
  endfacet
  facet normal 0 -0.916157 0.400819
    outer loop
      vertex -48.8333 -45.25 -19.99
      vertex 24.5 -36.5 0.0100002
      vertex -24.5 -36.5 0.0100002
    endloop
  endfacet
  facet normal 0 -0.916157 0.400819
    outer loop
      vertex 24.5 -36.5 0.0100002
      vertex -48.8333 -45.25 -19.99
      vertex 48.8333 -45.25 -19.99
    endloop
  endfacet
  facet normal 0.709165 -0.0698396 0.701575
    outer loop
      vertex 32.5 -28.5 0.0100002
      vertex 32.3463 -30.0607 0.0100002
      vertex 50.7949 -43.6402 -19.99
    endloop
  endfacet
  facet normal 0.650226 0.197217 0.733697
    outer loop
      vertex 50.6811 44.0154 -19.99
      vertex 31.891 31.5615 0.0100002
      vertex 50.7949 43.6402 -19.99
    endloop
  endfacet
  facet normal -0.517456 -0.424661 0.742902
    outer loop
      vertex -31.1518 -32.9446 0.0100002
      vertex -50.2475 -44.6642 -19.99
      vertex -30.1569 -34.1569 0.0100002
    endloop
  endfacet
  facet normal -0.586744 0.313654 0.74656
    outer loop
      vertex -50.4963 44.3611 -19.99
      vertex -50.6811 44.0154 -19.99
      vertex -31.891 31.5615 0.0100002
    endloop
  endfacet
  facet normal 0.586776 -0.313603 0.746557
    outer loop
      vertex 31.891 -31.5615 0.0100002
      vertex 31.1518 -32.9446 0.0100002
      vertex 50.4963 -44.3611 -19.99
    endloop
  endfacet
  facet normal 0.586744 0.313654 0.74656
    outer loop
      vertex 50.4963 44.3611 -19.99
      vertex 31.891 31.5615 0.0100002
      vertex 50.6811 44.0154 -19.99
    endloop
  endfacet
  facet normal 0.43899 -0.534837 0.721967
    outer loop
      vertex 50.2475 -44.6642 -19.99
      vertex 28.9446 -35.1518 0.0100002
      vertex 49.9445 -44.9129 -19.99
    endloop
  endfacet
  facet normal -0.586744 -0.313654 0.74656
    outer loop
      vertex -31.891 -31.5615 0.0100002
      vertex -50.6811 -44.0154 -19.99
      vertex -50.4963 -44.3611 -19.99
    endloop
  endfacet
  facet normal 0.231048 -0.761767 0.60525
    outer loop
      vertex 49.5987 -45.0978 -19.99
      vertex 26.0607 -36.3463 0.0100002
      vertex 49.2235 -45.2116 -19.99
    endloop
  endfacet
  facet normal 0.709187 0.0697918 0.701558
    outer loop
      vertex 50.7949 43.6402 -19.99
      vertex 32.5 28.5 0.0100002
      vertex 50.8333 43.25 -19.99
    endloop
  endfacet
  facet normal -0.517456 0.424661 0.742902
    outer loop
      vertex -30.1569 34.1569 0.0100002
      vertex -50.2475 44.6642 -19.99
      vertex -31.1518 32.9446 0.0100002
    endloop
  endfacet
  facet normal 0.231087 0.761731 0.605281
    outer loop
      vertex 49.5987 45.0978 -19.99
      vertex 26.0607 36.3463 0.0100002
      vertex 27.5615 35.891 0.0100002
    endloop
  endfacet
  facet normal 0 0.916157 0.400819
    outer loop
      vertex 48.8333 45.25 -19.99
      vertex -24.5 36.5 0.0100002
      vertex 24.5 36.5 0.0100002
    endloop
  endfacet
  facet normal 0 0.916157 0.400819
    outer loop
      vertex -24.5 36.5 0.0100002
      vertex 48.8333 45.25 -19.99
      vertex -48.8333 45.25 -19.99
    endloop
  endfacet
  facet normal 0.517414 0.42472 0.742897
    outer loop
      vertex 50.2475 44.6642 -19.99
      vertex 31.1518 32.9446 0.0100002
      vertex 50.4963 44.3611 -19.99
    endloop
  endfacet
  facet normal 0.0856496 0.870324 0.484974
    outer loop
      vertex 48.8333 45.25 -19.99
      vertex 24.5 36.5 0.0100002
      vertex 49.2235 45.2116 -19.99
    endloop
  endfacet
  facet normal -0.43896 -0.534879 0.721955
    outer loop
      vertex -30.1569 -34.1569 0.0100002
      vertex -50.2475 -44.6642 -19.99
      vertex -28.9446 -35.1518 0.0100002
    endloop
  endfacet
  facet normal 0.650208 0.197255 0.733703
    outer loop
      vertex 50.7949 43.6402 -19.99
      vertex 31.891 31.5615 0.0100002
      vertex 32.3463 30.0607 0.0100002
    endloop
  endfacet
  facet normal 0.0856496 -0.870324 0.484974
    outer loop
      vertex 49.2235 -45.2116 -19.99
      vertex 24.5 -36.5 0.0100002
      vertex 48.8333 -45.25 -19.99
    endloop
  endfacet
  facet normal 0.586744 -0.313654 0.74656
    outer loop
      vertex 50.6811 -44.0154 -19.99
      vertex 31.891 -31.5615 0.0100002
      vertex 50.4963 -44.3611 -19.99
    endloop
  endfacet
  facet normal 0.0857072 -0.870288 0.485029
    outer loop
      vertex 26.0607 -36.3463 0.0100002
      vertex 24.5 -36.5 0.0100002
      vertex 49.2235 -45.2116 -19.99
    endloop
  endfacet
  facet normal -0.517414 -0.42472 0.742897
    outer loop
      vertex -31.1518 -32.9446 0.0100002
      vertex -50.4963 -44.3611 -19.99
      vertex -50.2475 -44.6642 -19.99
    endloop
  endfacet
  facet normal -0.0857072 -0.870288 0.485029
    outer loop
      vertex -26.0607 -36.3463 0.0100002
      vertex -49.2235 -45.2116 -19.99
      vertex -24.5 -36.5 0.0100002
    endloop
  endfacet
  facet normal -0.34606 0.647202 0.679243
    outer loop
      vertex -49.5987 45.0978 -19.99
      vertex -49.9445 44.9129 -19.99
      vertex -27.5615 35.891 0.0100002
    endloop
  endfacet
  facet normal -0.231048 0.761767 0.60525
    outer loop
      vertex -49.2235 45.2116 -19.99
      vertex -49.5987 45.0978 -19.99
      vertex -26.0607 36.3463 0.0100002
    endloop
  endfacet
  facet normal 0.43896 -0.534879 0.721955
    outer loop
      vertex 30.1569 -34.1569 0.0100002
      vertex 28.9446 -35.1518 0.0100002
      vertex 50.2475 -44.6642 -19.99
    endloop
  endfacet
  facet normal -0.43899 0.534837 0.721967
    outer loop
      vertex -49.9445 44.9129 -19.99
      vertex -50.2475 44.6642 -19.99
      vertex -28.9446 35.1518 0.0100002
    endloop
  endfacet
  facet normal 0.709165 0.0698396 0.701575
    outer loop
      vertex 50.7949 43.6402 -19.99
      vertex 32.3463 30.0607 0.0100002
      vertex 32.5 28.5 0.0100002
    endloop
  endfacet
  facet normal -0.0856496 -0.870324 0.484974
    outer loop
      vertex -24.5 -36.5 0.0100002
      vertex -49.2235 -45.2116 -19.99
      vertex -48.8333 -45.25 -19.99
    endloop
  endfacet
  facet normal -0.709187 0.0697918 0.701558
    outer loop
      vertex -50.7949 43.6402 -19.99
      vertex -50.8333 43.25 -19.99
      vertex -32.5 28.5 0.0100002
    endloop
  endfacet
  facet normal 0.34596 0.647318 0.679184
    outer loop
      vertex 49.9445 44.9129 -19.99
      vertex 27.5615 35.891 0.0100002
      vertex 28.9446 35.1518 0.0100002
    endloop
  endfacet
  facet normal 0.43899 0.534837 0.721967
    outer loop
      vertex 49.9445 44.9129 -19.99
      vertex 28.9446 35.1518 0.0100002
      vertex 50.2475 44.6642 -19.99
    endloop
  endfacet
  facet normal -0.43896 0.534879 0.721955
    outer loop
      vertex -28.9446 35.1518 0.0100002
      vertex -50.2475 44.6642 -19.99
      vertex -30.1569 34.1569 0.0100002
    endloop
  endfacet
  facet normal -0.34596 0.647318 0.679184
    outer loop
      vertex -27.5615 35.891 0.0100002
      vertex -49.9445 44.9129 -19.99
      vertex -28.9446 35.1518 0.0100002
    endloop
  endfacet
  facet normal 0.650208 -0.197255 0.733703
    outer loop
      vertex 32.3463 -30.0607 0.0100002
      vertex 31.891 -31.5615 0.0100002
      vertex 50.7949 -43.6402 -19.99
    endloop
  endfacet
  facet normal -0.34606 -0.647202 0.679243
    outer loop
      vertex -27.5615 -35.891 0.0100002
      vertex -49.9445 -44.9129 -19.99
      vertex -49.5987 -45.0978 -19.99
    endloop
  endfacet
  facet normal -0.34596 -0.647318 0.679184
    outer loop
      vertex -28.9446 -35.1518 0.0100002
      vertex -49.9445 -44.9129 -19.99
      vertex -27.5615 -35.891 0.0100002
    endloop
  endfacet
  facet normal 0 0 -1
    outer loop
      vertex 48.8333 -45.25 -19.99
      vertex 50.8333 -43.25 -19.99
      vertex 50.7949 -43.6402 -19.99
    endloop
  endfacet
  facet normal -0 0 -1
    outer loop
      vertex 50.8333 -43.25 -19.99
      vertex 48.8333 -45.25 -19.99
      vertex 50.8333 43.25 -19.99
    endloop
  endfacet
  facet normal 0 0 -1
    outer loop
      vertex 48.8333 -45.25 -19.99
      vertex 50.7949 -43.6402 -19.99
      vertex 50.6811 -44.0154 -19.99
    endloop
  endfacet
  facet normal 0 0 -1
    outer loop
      vertex 48.8333 45.25 -19.99
      vertex 50.8333 43.25 -19.99
      vertex 48.8333 -45.25 -19.99
    endloop
  endfacet
  facet normal 0 0 -1
    outer loop
      vertex 48.8333 -45.25 -19.99
      vertex 50.6811 -44.0154 -19.99
      vertex 50.4963 -44.3611 -19.99
    endloop
  endfacet
  facet normal 0 0 -1
    outer loop
      vertex 50.8333 43.25 -19.99
      vertex 48.8333 45.25 -19.99
      vertex 50.7949 43.6402 -19.99
    endloop
  endfacet
  facet normal 0 0 -1
    outer loop
      vertex 48.8333 -45.25 -19.99
      vertex 50.4963 -44.3611 -19.99
      vertex 50.2475 -44.6642 -19.99
    endloop
  endfacet
  facet normal 0 0 -1
    outer loop
      vertex 50.7949 43.6402 -19.99
      vertex 48.8333 45.25 -19.99
      vertex 50.6811 44.0154 -19.99
    endloop
  endfacet
  facet normal 0 0 -1
    outer loop
      vertex 48.8333 -45.25 -19.99
      vertex 50.2475 -44.6642 -19.99
      vertex 49.9445 -44.9129 -19.99
    endloop
  endfacet
  facet normal 0 0 -1
    outer loop
      vertex 50.6811 44.0154 -19.99
      vertex 48.8333 45.25 -19.99
      vertex 50.4963 44.3611 -19.99
    endloop
  endfacet
  facet normal 0 0 -1
    outer loop
      vertex 48.8333 -45.25 -19.99
      vertex 49.9445 -44.9129 -19.99
      vertex 49.5987 -45.0978 -19.99
    endloop
  endfacet
  facet normal 0 0 -1
    outer loop
      vertex 50.4963 44.3611 -19.99
      vertex 48.8333 45.25 -19.99
      vertex 50.2475 44.6642 -19.99
    endloop
  endfacet
  facet normal 0 0 -1
    outer loop
      vertex 48.8333 -45.25 -19.99
      vertex 49.5987 -45.0978 -19.99
      vertex 49.2235 -45.2116 -19.99
    endloop
  endfacet
  facet normal 0 0 -1
    outer loop
      vertex 50.2475 44.6642 -19.99
      vertex 48.8333 45.25 -19.99
      vertex 49.9445 44.9129 -19.99
    endloop
  endfacet
  facet normal 0 0 -1
    outer loop
      vertex 49.9445 44.9129 -19.99
      vertex 48.8333 45.25 -19.99
      vertex 49.5987 45.0978 -19.99
    endloop
  endfacet
  facet normal 0 0 -1
    outer loop
      vertex 49.5987 45.0978 -19.99
      vertex 48.8333 45.25 -19.99
      vertex 49.2235 45.2116 -19.99
    endloop
  endfacet
  facet normal 0 0 -1
    outer loop
      vertex -48.8333 -45.25 -19.99
      vertex 48.8333 45.25 -19.99
      vertex 48.8333 -45.25 -19.99
    endloop
  endfacet
  facet normal 0 0 -1
    outer loop
      vertex -48.8333 -45.25 -19.99
      vertex -48.8333 45.25 -19.99
      vertex 48.8333 45.25 -19.99
    endloop
  endfacet
  facet normal 0 0 -1
    outer loop
      vertex -50.8333 -43.25 -19.99
      vertex -48.8333 -45.25 -19.99
      vertex -49.2235 -45.2116 -19.99
    endloop
  endfacet
  facet normal 0 0 -1
    outer loop
      vertex -48.8333 -45.25 -19.99
      vertex -50.8333 -43.25 -19.99
      vertex -48.8333 45.25 -19.99
    endloop
  endfacet
  facet normal 0 0 -1
    outer loop
      vertex -50.8333 -43.25 -19.99
      vertex -49.2235 -45.2116 -19.99
      vertex -49.5987 -45.0978 -19.99
    endloop
  endfacet
  facet normal 0 0 -1
    outer loop
      vertex -50.8333 43.25 -19.99
      vertex -48.8333 45.25 -19.99
      vertex -50.8333 -43.25 -19.99
    endloop
  endfacet
  facet normal 0 0 -1
    outer loop
      vertex -50.8333 -43.25 -19.99
      vertex -49.5987 -45.0978 -19.99
      vertex -49.9445 -44.9129 -19.99
    endloop
  endfacet
  facet normal 0 0 -1
    outer loop
      vertex -48.8333 45.25 -19.99
      vertex -50.8333 43.25 -19.99
      vertex -49.2235 45.2116 -19.99
    endloop
  endfacet
  facet normal 0 0 -1
    outer loop
      vertex -50.8333 -43.25 -19.99
      vertex -49.9445 -44.9129 -19.99
      vertex -50.2475 -44.6642 -19.99
    endloop
  endfacet
  facet normal 0 0 -1
    outer loop
      vertex -49.2235 45.2116 -19.99
      vertex -50.8333 43.25 -19.99
      vertex -49.5987 45.0978 -19.99
    endloop
  endfacet
  facet normal 0 0 -1
    outer loop
      vertex -50.8333 -43.25 -19.99
      vertex -50.2475 -44.6642 -19.99
      vertex -50.4963 -44.3611 -19.99
    endloop
  endfacet
  facet normal 0 0 -1
    outer loop
      vertex -49.5987 45.0978 -19.99
      vertex -50.8333 43.25 -19.99
      vertex -49.9445 44.9129 -19.99
    endloop
  endfacet
  facet normal 0 0 -1
    outer loop
      vertex -50.8333 -43.25 -19.99
      vertex -50.4963 -44.3611 -19.99
      vertex -50.6811 -44.0154 -19.99
    endloop
  endfacet
  facet normal 0 0 -1
    outer loop
      vertex -49.9445 44.9129 -19.99
      vertex -50.8333 43.25 -19.99
      vertex -50.2475 44.6642 -19.99
    endloop
  endfacet
  facet normal 0 0 -1
    outer loop
      vertex -50.8333 -43.25 -19.99
      vertex -50.6811 -44.0154 -19.99
      vertex -50.7949 -43.6402 -19.99
    endloop
  endfacet
  facet normal 0 0 -1
    outer loop
      vertex -50.2475 44.6642 -19.99
      vertex -50.8333 43.25 -19.99
      vertex -50.4963 44.3611 -19.99
    endloop
  endfacet
  facet normal 0 0 -1
    outer loop
      vertex -50.4963 44.3611 -19.99
      vertex -50.8333 43.25 -19.99
      vertex -50.6811 44.0154 -19.99
    endloop
  endfacet
  facet normal 0 0 -1
    outer loop
      vertex -50.6811 44.0154 -19.99
      vertex -50.8333 43.25 -19.99
      vertex -50.7949 43.6402 -19.99
    endloop
  endfacet
  facet normal -0.0857072 0.870288 0.485029
    outer loop
      vertex -24.5 36.5 0.0100002
      vertex -49.2235 45.2116 -19.99
      vertex -26.0607 36.3463 0.0100002
    endloop
  endfacet
  facet normal 0.586776 0.313603 0.746557
    outer loop
      vertex 50.4963 44.3611 -19.99
      vertex 31.1518 32.9446 0.0100002
      vertex 31.891 31.5615 0.0100002
    endloop
  endfacet
  facet normal 0.34606 0.647202 0.679243
    outer loop
      vertex 49.5987 45.0978 -19.99
      vertex 27.5615 35.891 0.0100002
      vertex 49.9445 44.9129 -19.99
    endloop
  endfacet
  facet normal -0.231087 0.761731 0.605281
    outer loop
      vertex -26.0607 36.3463 0.0100002
      vertex -49.5987 45.0978 -19.99
      vertex -27.5615 35.891 0.0100002
    endloop
  endfacet
  facet normal 0 0 1
    outer loop
      vertex 30.5 30.5 0.0100002
      vertex 32.5 28.5 0.0100002
      vertex 32.3463 30.0607 0.0100002
    endloop
  endfacet
  facet normal 0 0 1
    outer loop
      vertex 32.5 28.5 0.0100002
      vertex 30.5 30.5 0.0100002
      vertex 32.5 -28.5 0.0100002
    endloop
  endfacet
  facet normal -0 0 1
    outer loop
      vertex 30.5 30.5 0.0100002
      vertex 32.3463 30.0607 0.0100002
      vertex 31.891 31.5615 0.0100002
    endloop
  endfacet
  facet normal 0 0 1
    outer loop
      vertex 30.5 -30.5 0.0100002
      vertex 32.5 -28.5 0.0100002
      vertex 30.5 30.5 0.0100002
    endloop
  endfacet
  facet normal -0 0 1
    outer loop
      vertex 30.1955 32.0307 0.0100002
      vertex 31.891 31.5615 0.0100002
      vertex 31.1518 32.9446 0.0100002
    endloop
  endfacet
  facet normal 0 0 1
    outer loop
      vertex 32.5 -28.5 0.0100002
      vertex 30.5 -30.5 0.0100002
      vertex 32.3463 -30.0607 0.0100002
    endloop
  endfacet
  facet normal 0 0 1
    outer loop
      vertex 32.3463 -30.0607 0.0100002
      vertex 30.5 -30.5 0.0100002
      vertex 31.891 -31.5615 0.0100002
    endloop
  endfacet
  facet normal 0 0 1
    outer loop
      vertex 31.891 31.5615 0.0100002
      vertex 30.4231 31.2804 0.0100002
      vertex 30.5 30.5 0.0100002
    endloop
  endfacet
  facet normal 0 0 1
    outer loop
      vertex 31.891 31.5615 0.0100002
      vertex 30.1955 32.0307 0.0100002
      vertex 30.4231 31.2804 0.0100002
    endloop
  endfacet
  facet normal 0 0 1
    outer loop
      vertex 29.8259 32.7223 0.0100002
      vertex 31.1518 32.9446 0.0100002
      vertex 30.1569 34.1569 0.0100002
    endloop
  endfacet
  facet normal 0 0 1
    outer loop
      vertex 31.1518 32.9446 0.0100002
      vertex 29.8259 32.7223 0.0100002
      vertex 30.1955 32.0307 0.0100002
    endloop
  endfacet
  facet normal 0 0 1
    outer loop
      vertex 30.1569 34.1569 0.0100002
      vertex 29.3284 33.3284 0.0100002
      vertex 29.8259 32.7223 0.0100002
    endloop
  endfacet
  facet normal 0 0 1
    outer loop
      vertex 28.7223 33.8259 0.0100002
      vertex 30.1569 34.1569 0.0100002
      vertex 28.9446 35.1518 0.0100002
    endloop
  endfacet
  facet normal 0 0 1
    outer loop
      vertex 30.1569 34.1569 0.0100002
      vertex 28.7223 33.8259 0.0100002
      vertex 29.3284 33.3284 0.0100002
    endloop
  endfacet
  facet normal 0 0 1
    outer loop
      vertex 28.9446 35.1518 0.0100002
      vertex 28.0307 34.1955 0.0100002
      vertex 28.7223 33.8259 0.0100002
    endloop
  endfacet
  facet normal 0 0 1
    outer loop
      vertex 27.5615 35.891 0.0100002
      vertex 28.0307 34.1955 0.0100002
      vertex 28.9446 35.1518 0.0100002
    endloop
  endfacet
  facet normal 0 0 1
    outer loop
      vertex 27.5615 35.891 0.0100002
      vertex 27.2804 34.4231 0.0100002
      vertex 28.0307 34.1955 0.0100002
    endloop
  endfacet
  facet normal 0 0 1
    outer loop
      vertex 27.5615 35.891 0.0100002
      vertex 26.5 34.5 0.0100002
      vertex 27.2804 34.4231 0.0100002
    endloop
  endfacet
  facet normal 0 0 1
    outer loop
      vertex 26.0607 36.3463 0.0100002
      vertex 26.5 34.5 0.0100002
      vertex 27.5615 35.891 0.0100002
    endloop
  endfacet
  facet normal 0 0 1
    outer loop
      vertex 24.5 36.5 0.0100002
      vertex 26.5 34.5 0.0100002
      vertex 26.0607 36.3463 0.0100002
    endloop
  endfacet
  facet normal -0 0 1
    outer loop
      vertex -24.5 36.5 0.0100002
      vertex 26.5 34.5 0.0100002
      vertex 24.5 36.5 0.0100002
    endloop
  endfacet
  facet normal 0 0 1
    outer loop
      vertex -26.5 34.5 0.0100002
      vertex -24.5 36.5 0.0100002
      vertex -26.0607 36.3463 0.0100002
    endloop
  endfacet
  facet normal 0 0 1
    outer loop
      vertex -24.5 36.5 0.0100002
      vertex -26.5 34.5 0.0100002
      vertex 26.5 34.5 0.0100002
    endloop
  endfacet
  facet normal -0 0 1
    outer loop
      vertex -27.5615 35.891 0.0100002
      vertex -26.5 34.5 0.0100002
      vertex -26.0607 36.3463 0.0100002
    endloop
  endfacet
  facet normal 0 0 1
    outer loop
      vertex -26.5 34.5 0.0100002
      vertex -27.5615 35.891 0.0100002
      vertex -27.2804 34.4231 0.0100002
    endloop
  endfacet
  facet normal 0 0 1
    outer loop
      vertex -27.5615 35.891 0.0100002
      vertex -28.0307 34.1955 0.0100002
      vertex -27.2804 34.4231 0.0100002
    endloop
  endfacet
  facet normal -0 0 1
    outer loop
      vertex -28.9446 35.1518 0.0100002
      vertex -28.0307 34.1955 0.0100002
      vertex -27.5615 35.891 0.0100002
    endloop
  endfacet
  facet normal 0 0 1
    outer loop
      vertex -28.0307 34.1955 0.0100002
      vertex -28.9446 35.1518 0.0100002
      vertex -28.7223 33.8259 0.0100002
    endloop
  endfacet
  facet normal -0 0 1
    outer loop
      vertex -30.1569 34.1569 0.0100002
      vertex -28.7223 33.8259 0.0100002
      vertex -28.9446 35.1518 0.0100002
    endloop
  endfacet
  facet normal 0 0 1
    outer loop
      vertex -28.7223 33.8259 0.0100002
      vertex -30.1569 34.1569 0.0100002
      vertex -29.3284 33.3284 0.0100002
    endloop
  endfacet
  facet normal 0 0 1
    outer loop
      vertex -29.3284 33.3284 0.0100002
      vertex -30.1569 34.1569 0.0100002
      vertex -29.8259 32.7223 0.0100002
    endloop
  endfacet
  facet normal -0 0 1
    outer loop
      vertex -31.1518 32.9446 0.0100002
      vertex -29.8259 32.7223 0.0100002
      vertex -30.1569 34.1569 0.0100002
    endloop
  endfacet
  facet normal 0 0 1
    outer loop
      vertex -29.8259 32.7223 0.0100002
      vertex -31.1518 32.9446 0.0100002
      vertex -30.1955 32.0307 0.0100002
    endloop
  endfacet
  facet normal 0 0 1
    outer loop
      vertex -31.891 31.5615 0.0100002
      vertex -30.1955 32.0307 0.0100002
      vertex -31.1518 32.9446 0.0100002
    endloop
  endfacet
  facet normal 0 0 1
    outer loop
      vertex -30.4231 31.2804 0.0100002
      vertex -31.891 31.5615 0.0100002
      vertex -30.5 30.5 0.0100002
    endloop
  endfacet
  facet normal 0 0 1
    outer loop
      vertex -30.1955 32.0307 0.0100002
      vertex -31.891 31.5615 0.0100002
      vertex -30.4231 31.2804 0.0100002
    endloop
  endfacet
  facet normal -0 0 1
    outer loop
      vertex 30.4231 -31.2804 0.0100002
      vertex 31.891 -31.5615 0.0100002
      vertex 30.5 -30.5 0.0100002
    endloop
  endfacet
  facet normal 0 0 1
    outer loop
      vertex 30.1955 -32.0307 0.0100002
      vertex 31.891 -31.5615 0.0100002
      vertex 30.4231 -31.2804 0.0100002
    endloop
  endfacet
  facet normal 0 0 1
    outer loop
      vertex 31.891 -31.5615 0.0100002
      vertex 30.1955 -32.0307 0.0100002
      vertex 31.1518 -32.9446 0.0100002
    endloop
  endfacet
  facet normal -0 0 1
    outer loop
      vertex 29.8259 -32.7223 0.0100002
      vertex 31.1518 -32.9446 0.0100002
      vertex 30.1955 -32.0307 0.0100002
    endloop
  endfacet
  facet normal 0 0 1
    outer loop
      vertex 31.1518 -32.9446 0.0100002
      vertex 29.8259 -32.7223 0.0100002
      vertex 30.1569 -34.1569 0.0100002
    endloop
  endfacet
  facet normal -0 0 1
    outer loop
      vertex 29.3284 -33.3284 0.0100002
      vertex 30.1569 -34.1569 0.0100002
      vertex 29.8259 -32.7223 0.0100002
    endloop
  endfacet
  facet normal -0 0 1
    outer loop
      vertex 28.7223 -33.8259 0.0100002
      vertex 30.1569 -34.1569 0.0100002
      vertex 29.3284 -33.3284 0.0100002
    endloop
  endfacet
  facet normal 0 0 1
    outer loop
      vertex 30.1569 -34.1569 0.0100002
      vertex 28.7223 -33.8259 0.0100002
      vertex 28.9446 -35.1518 0.0100002
    endloop
  endfacet
  facet normal -0 0 1
    outer loop
      vertex 28.0307 -34.1955 0.0100002
      vertex 28.9446 -35.1518 0.0100002
      vertex 28.7223 -33.8259 0.0100002
    endloop
  endfacet
  facet normal 0 0 1
    outer loop
      vertex 28.0307 -34.1955 0.0100002
      vertex 27.5615 -35.891 0.0100002
      vertex 28.9446 -35.1518 0.0100002
    endloop
  endfacet
  facet normal -0 0 1
    outer loop
      vertex 27.2804 -34.4231 0.0100002
      vertex 27.5615 -35.891 0.0100002
      vertex 28.0307 -34.1955 0.0100002
    endloop
  endfacet
  facet normal -0 0 1
    outer loop
      vertex 26.5 -34.5 0.0100002
      vertex 27.5615 -35.891 0.0100002
      vertex 27.2804 -34.4231 0.0100002
    endloop
  endfacet
  facet normal 0 0 1
    outer loop
      vertex 26.5 -34.5 0.0100002
      vertex 26.0607 -36.3463 0.0100002
      vertex 27.5615 -35.891 0.0100002
    endloop
  endfacet
  facet normal 0 0 1
    outer loop
      vertex 26.5 -34.5 0.0100002
      vertex 24.5 -36.5 0.0100002
      vertex 26.0607 -36.3463 0.0100002
    endloop
  endfacet
  facet normal 0 0 1
    outer loop
      vertex 26.5 -34.5 0.0100002
      vertex -24.5 -36.5 0.0100002
      vertex 24.5 -36.5 0.0100002
    endloop
  endfacet
  facet normal -0 0 1
    outer loop
      vertex -26.5 -34.5 0.0100002
      vertex -24.5 -36.5 0.0100002
      vertex 26.5 -34.5 0.0100002
    endloop
  endfacet
  facet normal 0 0 1
    outer loop
      vertex -24.5 -36.5 0.0100002
      vertex -26.5 -34.5 0.0100002
      vertex -26.0607 -36.3463 0.0100002
    endloop
  endfacet
  facet normal 0 0 1
    outer loop
      vertex -27.5615 -35.891 0.0100002
      vertex -26.5 -34.5 0.0100002
      vertex -27.2804 -34.4231 0.0100002
    endloop
  endfacet
  facet normal 0 0 1
    outer loop
      vertex -26.5 -34.5 0.0100002
      vertex -27.5615 -35.891 0.0100002
      vertex -26.0607 -36.3463 0.0100002
    endloop
  endfacet
  facet normal 0 0 1
    outer loop
      vertex -28.0307 -34.1955 0.0100002
      vertex -27.5615 -35.891 0.0100002
      vertex -27.2804 -34.4231 0.0100002
    endloop
  endfacet
  facet normal 0 0 1
    outer loop
      vertex -28.9446 -35.1518 0.0100002
      vertex -28.0307 -34.1955 0.0100002
      vertex -28.7223 -33.8259 0.0100002
    endloop
  endfacet
  facet normal 0 0 1
    outer loop
      vertex -28.0307 -34.1955 0.0100002
      vertex -28.9446 -35.1518 0.0100002
      vertex -27.5615 -35.891 0.0100002
    endloop
  endfacet
  facet normal 0 0 1
    outer loop
      vertex -30.1569 -34.1569 0.0100002
      vertex -28.7223 -33.8259 0.0100002
      vertex -29.3284 -33.3284 0.0100002
    endloop
  endfacet
  facet normal 0 0 1
    outer loop
      vertex -30.1569 -34.1569 0.0100002
      vertex -29.3284 -33.3284 0.0100002
      vertex -29.8259 -32.7223 0.0100002
    endloop
  endfacet
  facet normal 0 0 1
    outer loop
      vertex -28.7223 -33.8259 0.0100002
      vertex -30.1569 -34.1569 0.0100002
      vertex -28.9446 -35.1518 0.0100002
    endloop
  endfacet
  facet normal 0 0 1
    outer loop
      vertex -31.1518 -32.9446 0.0100002
      vertex -29.8259 -32.7223 0.0100002
      vertex -30.1955 -32.0307 0.0100002
    endloop
  endfacet
  facet normal -0 0 1
    outer loop
      vertex -31.891 -31.5615 0.0100002
      vertex -30.1955 -32.0307 0.0100002
      vertex -30.4231 -31.2804 0.0100002
    endloop
  endfacet
  facet normal 0 0 1
    outer loop
      vertex -31.891 -31.5615 0.0100002
      vertex -30.4231 -31.2804 0.0100002
      vertex -30.5 -30.5 0.0100002
    endloop
  endfacet
  facet normal 0 0 1
    outer loop
      vertex -29.8259 -32.7223 0.0100002
      vertex -31.1518 -32.9446 0.0100002
      vertex -30.1569 -34.1569 0.0100002
    endloop
  endfacet
  facet normal 0 0 1
    outer loop
      vertex -30.5 30.5 0.0100002
      vertex -32.5 28.5 0.0100002
      vertex -30.5 -30.5 0.0100002
    endloop
  endfacet
  facet normal 0 0 1
    outer loop
      vertex -32.3463 30.0607 0.0100002
      vertex -30.5 30.5 0.0100002
      vertex -31.891 31.5615 0.0100002
    endloop
  endfacet
  facet normal -0 0 1
    outer loop
      vertex -32.5 -28.5 0.0100002
      vertex -30.5 -30.5 0.0100002
      vertex -32.5 28.5 0.0100002
    endloop
  endfacet
  facet normal 0 0 1
    outer loop
      vertex -30.5 30.5 0.0100002
      vertex -32.3463 30.0607 0.0100002
      vertex -32.5 28.5 0.0100002
    endloop
  endfacet
  facet normal -0 -0 1
    outer loop
      vertex -32.3463 -30.0607 0.0100002
      vertex -30.5 -30.5 0.0100002
      vertex -32.5 -28.5 0.0100002
    endloop
  endfacet
  facet normal 0 0 1
    outer loop
      vertex -30.1955 -32.0307 0.0100002
      vertex -31.891 -31.5615 0.0100002
      vertex -31.1518 -32.9446 0.0100002
    endloop
  endfacet
  facet normal 0 0 1
    outer loop
      vertex -30.5 -30.5 0.0100002
      vertex -32.3463 -30.0607 0.0100002
      vertex -31.891 -31.5615 0.0100002
    endloop
  endfacet
  facet normal 0 0 1
    outer loop
      vertex -28.5 24.5 0.0100002
      vertex 1.5 32.5 0.0100002
      vertex -20.5 32.5 0.0100002
    endloop
  endfacet
  facet normal 0 0 1
    outer loop
      vertex 1.5 32.5 0.0100002
      vertex -28.5 24.5 0.0100002
      vertex 1.5 -32.5 0.0100002
    endloop
  endfacet
  facet normal 0 0 1
    outer loop
      vertex -28.5 24.5 0.0100002
      vertex -20.5 32.5 0.0100002
      vertex -22.0607 32.3463 0.0100002
    endloop
  endfacet
  facet normal -0 0 1
    outer loop
      vertex -28.5 -24.5 0.0100002
      vertex 1.5 -32.5 0.0100002
      vertex -28.5 24.5 0.0100002
    endloop
  endfacet
  facet normal 0 0 1
    outer loop
      vertex -28.5 24.5 0.0100002
      vertex -22.0607 32.3463 0.0100002
      vertex -23.5615 31.891 0.0100002
    endloop
  endfacet
  facet normal 0 0 1
    outer loop
      vertex 1.5 -32.5 0.0100002
      vertex -28.5 -24.5 0.0100002
      vertex -20.5 -32.5 0.0100002
    endloop
  endfacet
  facet normal 0 0 1
    outer loop
      vertex -28.5 24.5 0.0100002
      vertex -23.5615 31.891 0.0100002
      vertex -24.9446 31.1518 0.0100002
    endloop
  endfacet
  facet normal 0 0 1
    outer loop
      vertex -20.5 -32.5 0.0100002
      vertex -28.5 -24.5 0.0100002
      vertex -22.0607 -32.3463 0.0100002
    endloop
  endfacet
  facet normal 0 0 1
    outer loop
      vertex -28.5 24.5 0.0100002
      vertex -24.9446 31.1518 0.0100002
      vertex -26.1569 30.1569 0.0100002
    endloop
  endfacet
  facet normal 0 0 1
    outer loop
      vertex -22.0607 -32.3463 0.0100002
      vertex -28.5 -24.5 0.0100002
      vertex -23.5615 -31.891 0.0100002
    endloop
  endfacet
  facet normal 0 0 1
    outer loop
      vertex -28.5 24.5 0.0100002
      vertex -26.1569 30.1569 0.0100002
      vertex -27.1518 28.9446 0.0100002
    endloop
  endfacet
  facet normal 0 0 1
    outer loop
      vertex -23.5615 -31.891 0.0100002
      vertex -28.5 -24.5 0.0100002
      vertex -24.9446 -31.1518 0.0100002
    endloop
  endfacet
  facet normal 0 0 1
    outer loop
      vertex -28.5 24.5 0.0100002
      vertex -27.1518 28.9446 0.0100002
      vertex -27.891 27.5615 0.0100002
    endloop
  endfacet
  facet normal 0 0 1
    outer loop
      vertex -24.9446 -31.1518 0.0100002
      vertex -28.5 -24.5 0.0100002
      vertex -26.1569 -30.1569 0.0100002
    endloop
  endfacet
  facet normal 0 0 1
    outer loop
      vertex -28.5 24.5 0.0100002
      vertex -27.891 27.5615 0.0100002
      vertex -28.3463 26.0607 0.0100002
    endloop
  endfacet
  facet normal 0 0 1
    outer loop
      vertex -26.1569 -30.1569 0.0100002
      vertex -28.5 -24.5 0.0100002
      vertex -27.1518 -28.9446 0.0100002
    endloop
  endfacet
  facet normal 0 0 1
    outer loop
      vertex -27.1518 -28.9446 0.0100002
      vertex -28.5 -24.5 0.0100002
      vertex -27.891 -27.5615 0.0100002
    endloop
  endfacet
  facet normal 0 0 1
    outer loop
      vertex -27.891 -27.5615 0.0100002
      vertex -28.5 -24.5 0.0100002
      vertex -28.3463 -26.0607 0.0100002
    endloop
  endfacet
  facet normal 0 0 1
    outer loop
      vertex 20.5 32.5 0.0100002
      vertex 28.5 24.5 0.0100002
      vertex 28.3463 26.0607 0.0100002
    endloop
  endfacet
  facet normal 0 0 1
    outer loop
      vertex 28.5 24.5 0.0100002
      vertex 3.5 32.5 0.0100002
      vertex 28.5 -24.5 0.0100002
    endloop
  endfacet
  facet normal 0 0 1
    outer loop
      vertex 20.5 32.5 0.0100002
      vertex 28.3463 26.0607 0.0100002
      vertex 27.891 27.5615 0.0100002
    endloop
  endfacet
  facet normal 0 0 1
    outer loop
      vertex 3.5 -32.5 0.0100002
      vertex 28.5 -24.5 0.0100002
      vertex 3.5 32.5 0.0100002
    endloop
  endfacet
  facet normal 0 0 1
    outer loop
      vertex 20.5 32.5 0.0100002
      vertex 27.891 27.5615 0.0100002
      vertex 27.1518 28.9446 0.0100002
    endloop
  endfacet
  facet normal 0 -0 1
    outer loop
      vertex 20.5 -32.5 0.0100002
      vertex 28.5 -24.5 0.0100002
      vertex 3.5 -32.5 0.0100002
    endloop
  endfacet
  facet normal 0 0 1
    outer loop
      vertex 20.5 32.5 0.0100002
      vertex 27.1518 28.9446 0.0100002
      vertex 26.1569 30.1569 0.0100002
    endloop
  endfacet
  facet normal 0 0 1
    outer loop
      vertex 28.5 -24.5 0.0100002
      vertex 20.5 -32.5 0.0100002
      vertex 28.3463 -26.0607 0.0100002
    endloop
  endfacet
  facet normal 0 0 1
    outer loop
      vertex 20.5 32.5 0.0100002
      vertex 26.1569 30.1569 0.0100002
      vertex 24.9446 31.1518 0.0100002
    endloop
  endfacet
  facet normal 0 0 1
    outer loop
      vertex 28.5 24.5 0.0100002
      vertex 20.5 32.5 0.0100002
      vertex 3.5 32.5 0.0100002
    endloop
  endfacet
  facet normal 0 0 1
    outer loop
      vertex 20.5 32.5 0.0100002
      vertex 24.9446 31.1518 0.0100002
      vertex 23.5615 31.891 0.0100002
    endloop
  endfacet
  facet normal 0 0 1
    outer loop
      vertex 28.3463 -26.0607 0.0100002
      vertex 20.5 -32.5 0.0100002
      vertex 27.891 -27.5615 0.0100002
    endloop
  endfacet
  facet normal 0 0 1
    outer loop
      vertex 20.5 32.5 0.0100002
      vertex 23.5615 31.891 0.0100002
      vertex 22.0607 32.3463 0.0100002
    endloop
  endfacet
  facet normal 0 0 1
    outer loop
      vertex 26.1569 -30.1569 0.0100002
      vertex 20.5 -32.5 0.0100002
      vertex 24.9446 -31.1518 0.0100002
    endloop
  endfacet
  facet normal 0 0 1
    outer loop
      vertex 24.9446 -31.1518 0.0100002
      vertex 20.5 -32.5 0.0100002
      vertex 23.5615 -31.891 0.0100002
    endloop
  endfacet
  facet normal 0 0 1
    outer loop
      vertex 23.5615 -31.891 0.0100002
      vertex 20.5 -32.5 0.0100002
      vertex 22.0607 -32.3463 0.0100002
    endloop
  endfacet
  facet normal 0 0 1
    outer loop
      vertex 27.891 -27.5615 0.0100002
      vertex 20.5 -32.5 0.0100002
      vertex 27.1518 -28.9446 0.0100002
    endloop
  endfacet
  facet normal 0 0 1
    outer loop
      vertex 27.1518 -28.9446 0.0100002
      vertex 20.5 -32.5 0.0100002
      vertex 26.1569 -30.1569 0.0100002
    endloop
  endfacet
  facet normal -0.995186 -0.0980073 0
    outer loop
      vertex 28.5 24.5 0.0100002
      vertex 28.3463 26.0607 100
      vertex 28.3463 26.0607 0.0100002
    endloop
  endfacet
  facet normal -0.995186 -0.0980073 0
    outer loop
      vertex 28.3463 26.0607 100
      vertex 28.5 24.5 0.0100002
      vertex 28.5 24.5 100
    endloop
  endfacet
  facet normal -0.881943 0.471356 0
    outer loop
      vertex 27.1518 -28.9446 0.0100002
      vertex 27.891 -27.5615 100
      vertex 27.891 -27.5615 0.0100002
    endloop
  endfacet
  facet normal -0.881943 0.471356 0
    outer loop
      vertex 27.891 -27.5615 100
      vertex 27.1518 -28.9446 0.0100002
      vertex 27.1518 -28.9446 100
    endloop
  endfacet
  facet normal -0.881943 -0.471356 0
    outer loop
      vertex 27.891 27.5615 0.0100002
      vertex 27.1518 28.9446 100
      vertex 27.1518 28.9446 0.0100002
    endloop
  endfacet
  facet normal -0.881943 -0.471356 0
    outer loop
      vertex 27.1518 28.9446 100
      vertex 27.891 27.5615 0.0100002
      vertex 27.891 27.5615 100
    endloop
  endfacet
  facet normal -0.995186 0.0980073 0
    outer loop
      vertex 28.3463 -26.0607 0.0100002
      vertex 28.5 -24.5 100
      vertex 28.5 -24.5 0.0100002
    endloop
  endfacet
  facet normal -0.995186 0.0980073 0
    outer loop
      vertex 28.5 -24.5 100
      vertex 28.3463 -26.0607 0.0100002
      vertex 28.3463 -26.0607 100
    endloop
  endfacet
  facet normal 0.995186 -0.0980073 0
    outer loop
      vertex -28.5 24.5 100
      vertex -28.3463 26.0607 0.0100002
      vertex -28.3463 26.0607 100
    endloop
  endfacet
  facet normal 0.995186 -0.0980073 0
    outer loop
      vertex -28.3463 26.0607 0.0100002
      vertex -28.5 24.5 100
      vertex -28.5 24.5 0.0100002
    endloop
  endfacet
  facet normal 0.956934 -0.290306 0
    outer loop
      vertex -28.3463 26.0607 100
      vertex -27.891 27.5615 0.0100002
      vertex -27.891 27.5615 100
    endloop
  endfacet
  facet normal 0.956934 -0.290306 0
    outer loop
      vertex -27.891 27.5615 0.0100002
      vertex -28.3463 26.0607 100
      vertex -28.3463 26.0607 0.0100002
    endloop
  endfacet
  facet normal 0.63439 -0.773013 0
    outer loop
      vertex -26.1569 30.1569 0.0100002
      vertex -24.9446 31.1518 100
      vertex -26.1569 30.1569 100
    endloop
  endfacet
  facet normal 0.63439 -0.773013 0
    outer loop
      vertex -24.9446 31.1518 100
      vertex -26.1569 30.1569 0.0100002
      vertex -24.9446 31.1518 0.0100002
    endloop
  endfacet
  facet normal -0.773013 0.63439 0
    outer loop
      vertex 26.1569 -30.1569 0.0100002
      vertex 27.1518 -28.9446 100
      vertex 27.1518 -28.9446 0.0100002
    endloop
  endfacet
  facet normal -0.773013 0.63439 0
    outer loop
      vertex 27.1518 -28.9446 100
      vertex 26.1569 -30.1569 0.0100002
      vertex 26.1569 -30.1569 100
    endloop
  endfacet
  facet normal -0.956934 0.290306 0
    outer loop
      vertex 27.891 -27.5615 0.0100002
      vertex 28.3463 -26.0607 100
      vertex 28.3463 -26.0607 0.0100002
    endloop
  endfacet
  facet normal -0.956934 0.290306 0
    outer loop
      vertex 28.3463 -26.0607 100
      vertex 27.891 -27.5615 0.0100002
      vertex 27.891 -27.5615 100
    endloop
  endfacet
  facet normal 0.290306 0.956934 -0
    outer loop
      vertex -22.0607 -32.3463 0.0100002
      vertex -23.5615 -31.891 100
      vertex -22.0607 -32.3463 100
    endloop
  endfacet
  facet normal 0.290306 0.956934 0
    outer loop
      vertex -23.5615 -31.891 100
      vertex -22.0607 -32.3463 0.0100002
      vertex -23.5615 -31.891 0.0100002
    endloop
  endfacet
  facet normal -1 0 0
    outer loop
      vertex 28.5 -24.5 0.0100002
      vertex 28.5 24.5 100
      vertex 28.5 24.5 0.0100002
    endloop
  endfacet
  facet normal -1 -0 0
    outer loop
      vertex 28.5 24.5 100
      vertex 28.5 -24.5 0.0100002
      vertex 28.5 -24.5 100
    endloop
  endfacet
  facet normal -0.63439 0.773013 0
    outer loop
      vertex 26.1569 -30.1569 0.0100002
      vertex 24.9446 -31.1518 100
      vertex 26.1569 -30.1569 100
    endloop
  endfacet
  facet normal -0.63439 0.773013 0
    outer loop
      vertex 24.9446 -31.1518 100
      vertex 26.1569 -30.1569 0.0100002
      vertex 24.9446 -31.1518 0.0100002
    endloop
  endfacet
  facet normal -0.773013 -0.63439 0
    outer loop
      vertex 27.1518 28.9446 0.0100002
      vertex 26.1569 30.1569 100
      vertex 26.1569 30.1569 0.0100002
    endloop
  endfacet
  facet normal -0.773013 -0.63439 0
    outer loop
      vertex 26.1569 30.1569 100
      vertex 27.1518 28.9446 0.0100002
      vertex 27.1518 28.9446 100
    endloop
  endfacet
  facet normal 0.471356 -0.881943 0
    outer loop
      vertex -24.9446 31.1518 0.0100002
      vertex -23.5615 31.891 100
      vertex -24.9446 31.1518 100
    endloop
  endfacet
  facet normal 0.471356 -0.881943 0
    outer loop
      vertex -23.5615 31.891 100
      vertex -24.9446 31.1518 0.0100002
      vertex -23.5615 31.891 0.0100002
    endloop
  endfacet
  facet normal -0.471356 0.881943 0
    outer loop
      vertex 24.9446 -31.1518 0.0100002
      vertex 23.5615 -31.891 100
      vertex 24.9446 -31.1518 100
    endloop
  endfacet
  facet normal -0.471356 0.881943 0
    outer loop
      vertex 23.5615 -31.891 100
      vertex 24.9446 -31.1518 0.0100002
      vertex 23.5615 -31.891 0.0100002
    endloop
  endfacet
  facet normal -0.956934 -0.290306 0
    outer loop
      vertex 28.3463 26.0607 0.0100002
      vertex 27.891 27.5615 100
      vertex 27.891 27.5615 0.0100002
    endloop
  endfacet
  facet normal -0.956934 -0.290306 0
    outer loop
      vertex 27.891 27.5615 100
      vertex 28.3463 26.0607 0.0100002
      vertex 28.3463 26.0607 100
    endloop
  endfacet
  facet normal 1 -0 0
    outer loop
      vertex -28.5 -24.5 100
      vertex -28.5 24.5 0.0100002
      vertex -28.5 24.5 100
    endloop
  endfacet
  facet normal 1 0 0
    outer loop
      vertex -28.5 24.5 0.0100002
      vertex -28.5 -24.5 100
      vertex -28.5 -24.5 0.0100002
    endloop
  endfacet
  facet normal -0.0980073 0.995186 0
    outer loop
      vertex 22.0607 -32.3463 0.0100002
      vertex 20.5 -32.5 100
      vertex 22.0607 -32.3463 100
    endloop
  endfacet
  facet normal -0.0980073 0.995186 0
    outer loop
      vertex 20.5 -32.5 100
      vertex 22.0607 -32.3463 0.0100002
      vertex 20.5 -32.5 0.0100002
    endloop
  endfacet
  facet normal 0.0980073 0.995186 -0
    outer loop
      vertex -20.5 -32.5 0.0100002
      vertex -22.0607 -32.3463 100
      vertex -20.5 -32.5 100
    endloop
  endfacet
  facet normal 0.0980073 0.995186 0
    outer loop
      vertex -22.0607 -32.3463 100
      vertex -20.5 -32.5 0.0100002
      vertex -22.0607 -32.3463 0.0100002
    endloop
  endfacet
  facet normal 0.995186 0.0980073 0
    outer loop
      vertex -28.3463 -26.0607 100
      vertex -28.5 -24.5 0.0100002
      vertex -28.5 -24.5 100
    endloop
  endfacet
  facet normal 0.995186 0.0980073 0
    outer loop
      vertex -28.5 -24.5 0.0100002
      vertex -28.3463 -26.0607 100
      vertex -28.3463 -26.0607 0.0100002
    endloop
  endfacet
  facet normal 0.956934 0.290306 0
    outer loop
      vertex -27.891 -27.5615 100
      vertex -28.3463 -26.0607 0.0100002
      vertex -28.3463 -26.0607 100
    endloop
  endfacet
  facet normal 0.956934 0.290306 0
    outer loop
      vertex -28.3463 -26.0607 0.0100002
      vertex -27.891 -27.5615 100
      vertex -27.891 -27.5615 0.0100002
    endloop
  endfacet
  facet normal 0 -1 0
    outer loop
      vertex -20.5 32.5 0.0100002
      vertex 1.5 32.5 100
      vertex -20.5 32.5 100
    endloop
  endfacet
  facet normal 0 -1 -0
    outer loop
      vertex 1.5 32.5 100
      vertex -20.5 32.5 0.0100002
      vertex 1.5 32.5 0.0100002
    endloop
  endfacet
  facet normal 0 -1 0
    outer loop
      vertex 3.5 32.5 0.0100002
      vertex 20.5 32.5 100
      vertex 3.5 32.5 100
    endloop
  endfacet
  facet normal 0 -1 -0
    outer loop
      vertex 20.5 32.5 100
      vertex 3.5 32.5 0.0100002
      vertex 20.5 32.5 0.0100002
    endloop
  endfacet
  facet normal 0 1 -0
    outer loop
      vertex 1.5 -32.5 0.0100002
      vertex -20.5 -32.5 100
      vertex 1.5 -32.5 100
    endloop
  endfacet
  facet normal 0 1 0
    outer loop
      vertex -20.5 -32.5 100
      vertex 1.5 -32.5 0.0100002
      vertex -20.5 -32.5 0.0100002
    endloop
  endfacet
  facet normal 0 1 -0
    outer loop
      vertex 20.5 -32.5 0.0100002
      vertex 3.5 -32.5 100
      vertex 20.5 -32.5 100
    endloop
  endfacet
  facet normal 0 1 0
    outer loop
      vertex 3.5 -32.5 100
      vertex 20.5 -32.5 0.0100002
      vertex 3.5 -32.5 0.0100002
    endloop
  endfacet
  facet normal -0.290306 -0.956934 0
    outer loop
      vertex 22.0607 32.3463 0.0100002
      vertex 23.5615 31.891 100
      vertex 22.0607 32.3463 100
    endloop
  endfacet
  facet normal -0.290306 -0.956934 -0
    outer loop
      vertex 23.5615 31.891 100
      vertex 22.0607 32.3463 0.0100002
      vertex 23.5615 31.891 0.0100002
    endloop
  endfacet
  facet normal 0.290306 -0.956934 0
    outer loop
      vertex -23.5615 31.891 0.0100002
      vertex -22.0607 32.3463 100
      vertex -23.5615 31.891 100
    endloop
  endfacet
  facet normal 0.290306 -0.956934 0
    outer loop
      vertex -22.0607 32.3463 100
      vertex -23.5615 31.891 0.0100002
      vertex -22.0607 32.3463 0.0100002
    endloop
  endfacet
  facet normal 0.471356 0.881943 -0
    outer loop
      vertex -23.5615 -31.891 0.0100002
      vertex -24.9446 -31.1518 100
      vertex -23.5615 -31.891 100
    endloop
  endfacet
  facet normal 0.471356 0.881943 0
    outer loop
      vertex -24.9446 -31.1518 100
      vertex -23.5615 -31.891 0.0100002
      vertex -24.9446 -31.1518 0.0100002
    endloop
  endfacet
  facet normal -0.0980073 -0.995186 0
    outer loop
      vertex 20.5 32.5 0.0100002
      vertex 22.0607 32.3463 100
      vertex 20.5 32.5 100
    endloop
  endfacet
  facet normal -0.0980073 -0.995186 -0
    outer loop
      vertex 22.0607 32.3463 100
      vertex 20.5 32.5 0.0100002
      vertex 22.0607 32.3463 0.0100002
    endloop
  endfacet
  facet normal 0.773013 0.63439 0
    outer loop
      vertex -26.1569 -30.1569 100
      vertex -27.1518 -28.9446 0.0100002
      vertex -27.1518 -28.9446 100
    endloop
  endfacet
  facet normal 0.773013 0.63439 0
    outer loop
      vertex -27.1518 -28.9446 0.0100002
      vertex -26.1569 -30.1569 100
      vertex -26.1569 -30.1569 0.0100002
    endloop
  endfacet
  facet normal -0.471356 -0.881943 0
    outer loop
      vertex 23.5615 31.891 0.0100002
      vertex 24.9446 31.1518 100
      vertex 23.5615 31.891 100
    endloop
  endfacet
  facet normal -0.471356 -0.881943 -0
    outer loop
      vertex 24.9446 31.1518 100
      vertex 23.5615 31.891 0.0100002
      vertex 24.9446 31.1518 0.0100002
    endloop
  endfacet
  facet normal -0.290306 0.956934 0
    outer loop
      vertex 23.5615 -31.891 0.0100002
      vertex 22.0607 -32.3463 100
      vertex 23.5615 -31.891 100
    endloop
  endfacet
  facet normal -0.290306 0.956934 0
    outer loop
      vertex 22.0607 -32.3463 100
      vertex 23.5615 -31.891 0.0100002
      vertex 22.0607 -32.3463 0.0100002
    endloop
  endfacet
  facet normal 0.63439 0.773013 -0
    outer loop
      vertex -24.9446 -31.1518 0.0100002
      vertex -26.1569 -30.1569 100
      vertex -24.9446 -31.1518 100
    endloop
  endfacet
  facet normal 0.63439 0.773013 0
    outer loop
      vertex -26.1569 -30.1569 100
      vertex -24.9446 -31.1518 0.0100002
      vertex -26.1569 -30.1569 0.0100002
    endloop
  endfacet
  facet normal 0.881943 -0.471356 0
    outer loop
      vertex -27.891 27.5615 100
      vertex -27.1518 28.9446 0.0100002
      vertex -27.1518 28.9446 100
    endloop
  endfacet
  facet normal 0.881943 -0.471356 0
    outer loop
      vertex -27.1518 28.9446 0.0100002
      vertex -27.891 27.5615 100
      vertex -27.891 27.5615 0.0100002
    endloop
  endfacet
  facet normal -0.63439 -0.773013 0
    outer loop
      vertex 24.9446 31.1518 0.0100002
      vertex 26.1569 30.1569 100
      vertex 24.9446 31.1518 100
    endloop
  endfacet
  facet normal -0.63439 -0.773013 -0
    outer loop
      vertex 26.1569 30.1569 100
      vertex 24.9446 31.1518 0.0100002
      vertex 26.1569 30.1569 0.0100002
    endloop
  endfacet
  facet normal 0.773013 -0.63439 0
    outer loop
      vertex -27.1518 28.9446 100
      vertex -26.1569 30.1569 0.0100002
      vertex -26.1569 30.1569 100
    endloop
  endfacet
  facet normal 0.773013 -0.63439 0
    outer loop
      vertex -26.1569 30.1569 0.0100002
      vertex -27.1518 28.9446 100
      vertex -27.1518 28.9446 0.0100002
    endloop
  endfacet
  facet normal 0.881943 0.471356 0
    outer loop
      vertex -27.1518 -28.9446 100
      vertex -27.891 -27.5615 0.0100002
      vertex -27.891 -27.5615 100
    endloop
  endfacet
  facet normal 0.881943 0.471356 0
    outer loop
      vertex -27.891 -27.5615 0.0100002
      vertex -27.1518 -28.9446 100
      vertex -27.1518 -28.9446 0.0100002
    endloop
  endfacet
  facet normal 0.0980073 -0.995186 0
    outer loop
      vertex -22.0607 32.3463 0.0100002
      vertex -20.5 32.5 100
      vertex -22.0607 32.3463 100
    endloop
  endfacet
  facet normal 0.0980073 -0.995186 0
    outer loop
      vertex -20.5 32.5 100
      vertex -22.0607 32.3463 0.0100002
      vertex -20.5 32.5 0.0100002
    endloop
  endfacet
  facet normal -1 0 0
    outer loop
      vertex 1.5 -32.5 0.0100002
      vertex 1.5 32.5 100
      vertex 1.5 32.5 0.0100002
    endloop
  endfacet
  facet normal -1 -0 0
    outer loop
      vertex 1.5 32.5 100
      vertex 1.5 -32.5 0.0100002
      vertex 1.5 -32.5 100
    endloop
  endfacet
  facet normal 1 -0 0
    outer loop
      vertex 3.5 -32.5 100
      vertex 3.5 32.5 0.0100002
      vertex 3.5 32.5 100
    endloop
  endfacet
  facet normal 1 0 0
    outer loop
      vertex 3.5 32.5 0.0100002
      vertex 3.5 -32.5 100
      vertex 3.5 -32.5 0.0100002
    endloop
  endfacet
endsolid OpenSCAD_Model
