solid OpenSCAD_Model
  facet normal 0 0 -1
    outer loop
      vertex 0.2172 -1.24936 0
      vertex 6.67572e-06 9.53674e-06 0
      vertex 6.87039e-06 1.18999e-05 0
    endloop
  endfacet
  facet normal 0 0 -1
    outer loop
      vertex 88.5924 -1.24936 0
      vertex 88.7054 1.26383 0
      vertex 88.8095 9.53674e-06 0
    endloop
  endfacet
  facet normal 0 0 -1
    outer loop
      vertex 88.5924 -1.24936 0
      vertex 88.2867 2.46081 0
      vertex 88.7054 1.26383 0
    endloop
  endfacet
  facet normal 0 0 -1
    outer loop
      vertex 88.0678 -2.4039 0
      vertex 88.2867 2.46081 0
      vertex 88.5924 -1.24936 0
    endloop
  endfacet
  facet normal 0 0 -1
    outer loop
      vertex 87.2698 -3.38936 0
      vertex 88.2867 2.46081 0
      vertex 88.0678 -2.4039 0
    endloop
  endfacet
  facet normal 0 0 -1
    outer loop
      vertex 86.2494 -4.14235 0
      vertex 88.2867 2.46081 0
      vertex 87.2698 -3.38936 0
    endloop
  endfacet
  facet normal 0 0 -1
    outer loop
      vertex 85.0725 -4.61445 0
      vertex 88.2867 2.46081 0
      vertex 86.2494 -4.14235 0
    endloop
  endfacet
  facet normal 0 0 -1
    outer loop
      vertex 83.8146 -4.77526 0
      vertex 88.2867 2.46081 0
      vertex 85.0725 -4.61445 0
    endloop
  endfacet
  facet normal 0 0 -1
    outer loop
      vertex 1.69101 4.7972 0
      vertex 88.2867 2.46081 0
      vertex 83.8146 -4.77526 0
    endloop
  endfacet
  facet normal 0 0 -1
    outer loop
      vertex 88.2867 2.46081 0
      vertex 1.69101 4.7972 0
      vertex 48.8769 81.2805 0
    endloop
  endfacet
  facet normal 0 0 -1
    outer loop
      vertex 48.8769 81.2805 0
      vertex 39.9327 81.2805 0
      vertex 48.1976 82.3023 0
    endloop
  endfacet
  facet normal -0 0 -1
    outer loop
      vertex 48.1976 82.3023 0
      vertex 39.9327 81.2805 0
      vertex 47.2899 83.128 0
    endloop
  endfacet
  facet normal -0 0 -1
    outer loop
      vertex 47.2899 83.128 0
      vertex 39.9327 81.2805 0
      vertex 46.2084 83.7077 0
    endloop
  endfacet
  facet normal -0 0 -1
    outer loop
      vertex 46.2084 83.7077 0
      vertex 39.9327 81.2805 0
      vertex 45.0183 84.0066 0
    endloop
  endfacet
  facet normal -0 0 -1
    outer loop
      vertex 45.0183 84.0066 0
      vertex 39.9327 81.2805 0
      vertex 43.7913 84.0066 0
    endloop
  endfacet
  facet normal 0 0 -1
    outer loop
      vertex 43.7913 84.0066 0
      vertex 39.9327 81.2805 0
      vertex 42.6011 83.7077 0
    endloop
  endfacet
  facet normal 0 0 -1
    outer loop
      vertex 42.6011 83.7077 0
      vertex 39.9327 81.2805 0
      vertex 41.5197 83.128 0
    endloop
  endfacet
  facet normal 0 0 -1
    outer loop
      vertex 41.5197 83.128 0
      vertex 39.9327 81.2805 0
      vertex 40.6119 82.3023 0
    endloop
  endfacet
  facet normal 0 0 -1
    outer loop
      vertex 1.69101 4.7972 0
      vertex 83.8146 -4.77526 0
      vertex 4.99496 -4.77526 0
    endloop
  endfacet
  facet normal 0 0 -1
    outer loop
      vertex 6.87039e-06 1.18999e-05 0
      vertex 4.99496 -4.77526 0
      vertex 3.73708 -4.61445 0
    endloop
  endfacet
  facet normal 0 0 -1
    outer loop
      vertex 6.87039e-06 1.18999e-05 0
      vertex 3.73708 -4.61445 0
      vertex 2.56013 -4.14235 0
    endloop
  endfacet
  facet normal -0 0 -1
    outer loop
      vertex 48.8769 81.2805 0
      vertex 1.69101 4.7972 0
      vertex 39.9327 81.2805 0
    endloop
  endfacet
  facet normal 0 0 -1
    outer loop
      vertex 6.87039e-06 1.18999e-05 0
      vertex 2.56013 -4.14235 0
      vertex 1.53979 -3.38936 0
    endloop
  endfacet
  facet normal 0 0 -1
    outer loop
      vertex 6.87039e-06 1.18999e-05 0
      vertex 1.53979 -3.38936 0
      vertex 0.741706 -2.4039 0
    endloop
  endfacet
  facet normal 0 0 -1
    outer loop
      vertex 6.87039e-06 1.18999e-05 0
      vertex 0.741706 -2.4039 0
      vertex 0.2172 -1.24936 0
    endloop
  endfacet
  facet normal 0 0 -1
    outer loop
      vertex 4.99496 -4.77526 0
      vertex 6.87039e-06 1.18999e-05 0
      vertex 1.69101 4.7972 0
    endloop
  endfacet
  facet normal 0 0 -1
    outer loop
      vertex -10.9234 12.0801 0
      vertex 6.87039e-06 1.18999e-05 0
      vertex 0 0 0
    endloop
  endfacet
  facet normal 0 0 -1
    outer loop
      vertex 6.87039e-06 1.18999e-05 0
      vertex -10.9234 12.0801 0
      vertex 1.69101 4.7972 0
    endloop
  endfacet
  facet normal 0 0 -1
    outer loop
      vertex -8.42339 16.4103 0
      vertex -11.6053 19.9441 0
      vertex -11.0054 20.1252 0
    endloop
  endfacet
  facet normal 0 0 -1
    outer loop
      vertex -8.42339 16.4103 0
      vertex -12.7364 18.9004 0
      vertex -11.6053 19.9441 0
    endloop
  endfacet
  facet normal 0 0 -1
    outer loop
      vertex -11.6053 19.9441 0
      vertex -12.7364 18.9004 0
      vertex -12.1413 19.6195 0
    endloop
  endfacet
  facet normal 0 0 -1
    outer loop
      vertex -12.1413 19.6195 0
      vertex -12.7364 18.9004 0
      vertex -12.5798 19.1718 0
    endloop
  endfacet
  facet normal 0 0 -1
    outer loop
      vertex -10.9234 12.0801 0
      vertex -12.7535 18.9103 0
      vertex -12.7364 18.9004 0
    endloop
  endfacet
  facet normal -0 0 -1
    outer loop
      vertex -10.9234 12.0801 0
      vertex -17.7535 10.25 0
      vertex -12.7535 18.9103 0
    endloop
  endfacet
  facet normal 0 0 -1
    outer loop
      vertex -17.7535 10.25 0
      vertex -10.9234 12.0801 0
      vertex 0 0 0
    endloop
  endfacet
  facet normal 0 0 -1
    outer loop
      vertex -8.18055 16.988 0
      vertex -8.15451 18.2311 0
      vertex -8.08901 17.6079 0
    endloop
  endfacet
  facet normal 0 0 -1
    outer loop
      vertex -8.18055 16.988 0
      vertex -8.37295 18.8185 0
      vertex -8.15451 18.2311 0
    endloop
  endfacet
  facet normal 0 0 -1
    outer loop
      vertex -8.42339 16.4103 0
      vertex -8.37295 18.8185 0
      vertex -8.18055 16.988 0
    endloop
  endfacet
  facet normal 0 0 -1
    outer loop
      vertex -8.42339 16.4103 0
      vertex -8.73059 19.3331 0
      vertex -8.37295 18.8185 0
    endloop
  endfacet
  facet normal 0 0 -1
    outer loop
      vertex -8.42339 16.4103 0
      vertex -9.20498 19.7426 0
      vertex -8.73059 19.3331 0
    endloop
  endfacet
  facet normal 0 0 -1
    outer loop
      vertex -8.42339 16.4103 0
      vertex -9.76629 20.0212 0
      vertex -9.20498 19.7426 0
    endloop
  endfacet
  facet normal 0 0 -1
    outer loop
      vertex -8.42339 16.4103 0
      vertex -10.3793 20.1515 0
      vertex -9.76629 20.0212 0
    endloop
  endfacet
  facet normal 0 0 -1
    outer loop
      vertex -12.7364 18.9004 0
      vertex -8.42339 16.4103 0
      vertex -10.9234 12.0801 0
    endloop
  endfacet
  facet normal 0 0 -1
    outer loop
      vertex -8.42339 16.4103 0
      vertex -11.0054 20.1252 0
      vertex -10.3793 20.1515 0
    endloop
  endfacet
  facet normal -0.866027 0.499998 0
    outer loop
      vertex -17.7535 10.25 0
      vertex -12.7535 18.9103 70
      vertex -12.7535 18.9103 0
    endloop
  endfacet
  facet normal -0.866027 0.499998 0
    outer loop
      vertex -12.7535 18.9103 70
      vertex -17.7535 10.25 0
      vertex -17.7535 10.25 70
    endloop
  endfacet
  facet normal 0 0 1
    outer loop
      vertex -8.15451 18.2311 70
      vertex -8.18055 16.988 70
      vertex -8.08901 17.6079 70
    endloop
  endfacet
  facet normal 0 0 1
    outer loop
      vertex -8.37295 18.8185 70
      vertex -8.18055 16.988 70
      vertex -8.15451 18.2311 70
    endloop
  endfacet
  facet normal 0 0 1
    outer loop
      vertex -8.37295 18.8185 70
      vertex -8.42339 16.4103 70
      vertex -8.18055 16.988 70
    endloop
  endfacet
  facet normal 0 0 1
    outer loop
      vertex -8.73059 19.3331 70
      vertex -8.42339 16.4103 70
      vertex -8.37295 18.8185 70
    endloop
  endfacet
  facet normal 0 0 1
    outer loop
      vertex -9.20498 19.7426 70
      vertex -8.42339 16.4103 70
      vertex -8.73059 19.3331 70
    endloop
  endfacet
  facet normal 0 0 1
    outer loop
      vertex -9.76629 20.0212 70
      vertex -8.42339 16.4103 70
      vertex -9.20498 19.7426 70
    endloop
  endfacet
  facet normal 0 0 1
    outer loop
      vertex -10.3793 20.1515 70
      vertex -8.42339 16.4103 70
      vertex -9.76629 20.0212 70
    endloop
  endfacet
  facet normal -0 0 1
    outer loop
      vertex -12.7364 18.9004 70
      vertex -8.42339 16.4103 70
      vertex -10.3793 20.1515 70
    endloop
  endfacet
  facet normal 0 0 1
    outer loop
      vertex -12.7364 18.9004 70
      vertex -10.3793 20.1515 70
      vertex -11.0054 20.1252 70
    endloop
  endfacet
  facet normal 0 0 1
    outer loop
      vertex 88.7054 1.26383 70
      vertex 88.5924 -1.24936 70
      vertex 88.8095 9.53674e-06 70
    endloop
  endfacet
  facet normal 0 0 1
    outer loop
      vertex 88.2867 2.46081 70
      vertex 88.5924 -1.24936 70
      vertex 88.7054 1.26383 70
    endloop
  endfacet
  facet normal 0 0 1
    outer loop
      vertex 88.2867 2.46081 70
      vertex 88.0678 -2.4039 70
      vertex 88.5924 -1.24936 70
    endloop
  endfacet
  facet normal 0 0 1
    outer loop
      vertex 88.2867 2.46081 70
      vertex 87.2698 -3.38936 70
      vertex 88.0678 -2.4039 70
    endloop
  endfacet
  facet normal 0 0 1
    outer loop
      vertex 88.2867 2.46081 70
      vertex 86.2494 -4.14235 70
      vertex 87.2698 -3.38936 70
    endloop
  endfacet
  facet normal 0 0 1
    outer loop
      vertex 88.2867 2.46081 70
      vertex 85.0725 -4.61445 70
      vertex 86.2494 -4.14235 70
    endloop
  endfacet
  facet normal 0 0 1
    outer loop
      vertex 88.2867 2.46081 70
      vertex 83.8146 -4.77526 70
      vertex 85.0725 -4.61445 70
    endloop
  endfacet
  facet normal -0 0 1
    outer loop
      vertex 1.69101 4.7972 70
      vertex 88.2867 2.46081 70
      vertex 48.8769 81.2805 70
    endloop
  endfacet
  facet normal 0 0 1
    outer loop
      vertex 39.9327 81.2805 70
      vertex 48.8769 81.2805 70
      vertex 48.1976 82.3023 70
    endloop
  endfacet
  facet normal 0 0 1
    outer loop
      vertex 39.9327 81.2805 70
      vertex 48.1976 82.3023 70
      vertex 47.2899 83.128 70
    endloop
  endfacet
  facet normal 0 0 1
    outer loop
      vertex 39.9327 81.2805 70
      vertex 47.2899 83.128 70
      vertex 46.2084 83.7077 70
    endloop
  endfacet
  facet normal 0 0 1
    outer loop
      vertex 39.9327 81.2805 70
      vertex 46.2084 83.7077 70
      vertex 45.0183 84.0066 70
    endloop
  endfacet
  facet normal 0 0 1
    outer loop
      vertex 39.9327 81.2805 70
      vertex 45.0183 84.0066 70
      vertex 43.7913 84.0066 70
    endloop
  endfacet
  facet normal 0 0 1
    outer loop
      vertex 39.9327 81.2805 70
      vertex 43.7913 84.0066 70
      vertex 42.6011 83.7077 70
    endloop
  endfacet
  facet normal 0 0 1
    outer loop
      vertex 39.9327 81.2805 70
      vertex 42.6011 83.7077 70
      vertex 41.5197 83.128 70
    endloop
  endfacet
  facet normal 0 0 1
    outer loop
      vertex 39.9327 81.2805 70
      vertex 41.5197 83.128 70
      vertex 40.6119 82.3023 70
    endloop
  endfacet
  facet normal 0 0 1
    outer loop
      vertex 1.69101 4.7972 70
      vertex 48.8769 81.2805 70
      vertex 39.9327 81.2805 70
    endloop
  endfacet
  facet normal 0 0 1
    outer loop
      vertex 88.2867 2.46081 70
      vertex 1.69101 4.7972 70
      vertex 83.8146 -4.77526 70
    endloop
  endfacet
  facet normal 0 0 1
    outer loop
      vertex 83.8146 -4.77526 70
      vertex 1.69101 4.7972 70
      vertex 4.99496 -4.77526 70
    endloop
  endfacet
  facet normal -0 0 1
    outer loop
      vertex 6.87039e-06 1.18999e-05 70
      vertex 4.99496 -4.77526 70
      vertex 1.69101 4.7972 70
    endloop
  endfacet
  facet normal 0 0 1
    outer loop
      vertex 4.99496 -4.77526 70
      vertex 6.87039e-06 1.18999e-05 70
      vertex 3.73708 -4.61445 70
    endloop
  endfacet
  facet normal 0 0 1
    outer loop
      vertex 3.73708 -4.61445 70
      vertex 6.87039e-06 1.18999e-05 70
      vertex 2.56013 -4.14235 70
    endloop
  endfacet
  facet normal 0 0 1
    outer loop
      vertex 2.56013 -4.14235 70
      vertex 6.87039e-06 1.18999e-05 70
      vertex 1.53979 -3.38936 70
    endloop
  endfacet
  facet normal 0 0 1
    outer loop
      vertex 1.53979 -3.38936 70
      vertex 6.87039e-06 1.18999e-05 70
      vertex 0.741706 -2.4039 70
    endloop
  endfacet
  facet normal 0 0 1
    outer loop
      vertex 0.741706 -2.4039 70
      vertex 6.87039e-06 1.18999e-05 70
      vertex 0.2172 -1.24936 70
    endloop
  endfacet
  facet normal 0 0 1
    outer loop
      vertex -10.9234 12.0801 70
      vertex 6.87039e-06 1.18999e-05 70
      vertex 1.69101 4.7972 70
    endloop
  endfacet
  facet normal 0 0 1
    outer loop
      vertex 6.87039e-06 1.18999e-05 70
      vertex -10.9234 12.0801 70
      vertex 0 0 70
    endloop
  endfacet
  facet normal 0 0 1
    outer loop
      vertex -12.7364 18.9004 70
      vertex -11.0054 20.1252 70
      vertex -11.6053 19.9441 70
    endloop
  endfacet
  facet normal 0 0 1
    outer loop
      vertex -12.7364 18.9004 70
      vertex -11.6053 19.9441 70
      vertex -12.1413 19.6195 70
    endloop
  endfacet
  facet normal 0 0 1
    outer loop
      vertex -12.7364 18.9004 70
      vertex -12.1413 19.6195 70
      vertex -12.5798 19.1718 70
    endloop
  endfacet
  facet normal 0 0 1
    outer loop
      vertex -8.42339 16.4103 70
      vertex -12.7364 18.9004 70
      vertex -10.9234 12.0801 70
    endloop
  endfacet
  facet normal 0 0 1
    outer loop
      vertex -12.7535 18.9103 70
      vertex -10.9234 12.0801 70
      vertex -12.7364 18.9004 70
    endloop
  endfacet
  facet normal 0 0 1
    outer loop
      vertex -10.9234 12.0801 70
      vertex -17.7535 10.25 70
      vertex 0 0 70
    endloop
  endfacet
  facet normal 0 0 1
    outer loop
      vertex -17.7535 10.25 70
      vertex -10.9234 12.0801 70
      vertex -12.7535 18.9103 70
    endloop
  endfacet
  facet normal 0 0 1
    outer loop
      vertex 0.2172 -1.24936 70
      vertex 6.87039e-06 1.18999e-05 70
      vertex 6.67572e-06 9.53674e-06 70
    endloop
  endfacet
  facet normal 0.499998 0.866026 -0
    outer loop
      vertex 1.69101 4.7972 0
      vertex -10.9234 12.0801 70
      vertex 1.69101 4.7972 70
    endloop
  endfacet
  facet normal 0.499998 0.866026 0
    outer loop
      vertex -10.9234 12.0801 70
      vertex 1.69101 4.7972 0
      vertex -10.9234 12.0801 0
    endloop
  endfacet
  facet normal 0.866026 -0.499999 0
    outer loop
      vertex 0 0 70
      vertex 6.87039e-06 1.18999e-05 0
      vertex 6.87039e-06 1.18999e-05 70
    endloop
  endfacet
  facet normal 0.866026 -0.499999 0
    outer loop
      vertex 6.87039e-06 1.18999e-05 0
      vertex 0 0 70
      vertex 0 0 0
    endloop
  endfacet
  facet normal -0.5 -0.866025 0
    outer loop
      vertex -17.7535 10.25 0
      vertex 0 0 70
      vertex -17.7535 10.25 70
    endloop
  endfacet
  facet normal -0.5 -0.866025 -0
    outer loop
      vertex 0 0 70
      vertex -17.7535 10.25 0
      vertex 0 0 0
    endloop
  endfacet
  facet normal 0.501036 0.865426 -0
    outer loop
      vertex -12.7364 18.9004 0
      vertex -12.7535 18.9103 70
      vertex -12.7364 18.9004 70
    endloop
  endfacet
  facet normal 0.501036 0.865426 0
    outer loop
      vertex -12.7535 18.9103 70
      vertex -12.7364 18.9004 0
      vertex -12.7535 18.9103 0
    endloop
  endfacet
  facet normal 0.866028 -0.499995 0
    outer loop
      vertex -10.9234 12.0801 70
      vertex -8.42339 16.4103 0
      vertex -8.42339 16.4103 70
    endloop
  endfacet
  facet normal 0.866028 -0.499995 0
    outer loop
      vertex -8.42339 16.4103 0
      vertex -10.9234 12.0801 70
      vertex -10.9234 12.0801 0
    endloop
  endfacet
  facet normal -0.518012 0.855374 0
    outer loop
      vertex -11.6053 19.9441 0
      vertex -12.1413 19.6195 70
      vertex -11.6053 19.9441 70
    endloop
  endfacet
  facet normal -0.518012 0.855374 0
    outer loop
      vertex -12.1413 19.6195 70
      vertex -11.6053 19.9441 0
      vertex -12.1413 19.6195 0
    endloop
  endfacet
  facet normal 0.653437 0.756981 -0
    outer loop
      vertex -8.73059 19.3331 0
      vertex -9.20498 19.7426 70
      vertex -8.73059 19.3331 70
    endloop
  endfacet
  facet normal 0.653437 0.756981 0
    outer loop
      vertex -9.20498 19.7426 70
      vertex -8.73059 19.3331 0
      vertex -9.20498 19.7426 0
    endloop
  endfacet
  facet normal 0.994522 0.104527 0
    outer loop
      vertex -8.08901 17.6079 70
      vertex -8.15451 18.2311 0
      vertex -8.15451 18.2311 70
    endloop
  endfacet
  facet normal 0.994522 0.104527 0
    outer loop
      vertex -8.15451 18.2311 0
      vertex -8.08901 17.6079 70
      vertex -8.08901 17.6079 0
    endloop
  endfacet
  facet normal 0.921865 -0.387512 0
    outer loop
      vertex -8.42339 16.4103 70
      vertex -8.18055 16.988 0
      vertex -8.18055 16.988 70
    endloop
  endfacet
  facet normal 0.921865 -0.387512 0
    outer loop
      vertex -8.18055 16.988 0
      vertex -8.42339 16.4103 70
      vertex -8.42339 16.4103 0
    endloop
  endfacet
  facet normal -0.289002 0.957329 0
    outer loop
      vertex -11.0054 20.1252 0
      vertex -11.6053 19.9441 70
      vertex -11.0054 20.1252 70
    endloop
  endfacet
  facet normal -0.289002 0.957329 0
    outer loop
      vertex -11.6053 19.9441 70
      vertex -11.0054 20.1252 0
      vertex -11.6053 19.9441 0
    endloop
  endfacet
  facet normal -0.0419691 0.999119 0
    outer loop
      vertex -10.3793 20.1515 0
      vertex -11.0054 20.1252 70
      vertex -10.3793 20.1515 70
    endloop
  endfacet
  facet normal -0.0419691 0.999119 0
    outer loop
      vertex -11.0054 20.1252 70
      vertex -10.3793 20.1515 0
      vertex -11.0054 20.1252 0
    endloop
  endfacet
  facet normal 0.821161 0.570696 0
    outer loop
      vertex -8.37295 18.8185 70
      vertex -8.73059 19.3331 0
      vertex -8.73059 19.3331 70
    endloop
  endfacet
  facet normal 0.821161 0.570696 0
    outer loop
      vertex -8.73059 19.3331 0
      vertex -8.37295 18.8185 70
      vertex -8.37295 18.8185 0
    endloop
  endfacet
  facet normal -0.866154 0.499778 0
    outer loop
      vertex -12.7364 18.9004 0
      vertex -12.5798 19.1718 70
      vertex -12.5798 19.1718 0
    endloop
  endfacet
  facet normal -0.866154 0.499778 0
    outer loop
      vertex -12.5798 19.1718 70
      vertex -12.7364 18.9004 0
      vertex -12.7364 18.9004 70
    endloop
  endfacet
  facet normal 0.989272 -0.146085 0
    outer loop
      vertex -8.18055 16.988 70
      vertex -8.08901 17.6079 0
      vertex -8.08901 17.6079 70
    endloop
  endfacet
  facet normal 0.989272 -0.146085 0
    outer loop
      vertex -8.08901 17.6079 0
      vertex -8.18055 16.988 70
      vertex -8.18055 16.988 0
    endloop
  endfacet
  facet normal 0.444588 0.895735 -0
    outer loop
      vertex -9.20498 19.7426 0
      vertex -9.76629 20.0212 70
      vertex -9.20498 19.7426 70
    endloop
  endfacet
  facet normal 0.444588 0.895735 0
    outer loop
      vertex -9.76629 20.0212 70
      vertex -9.20498 19.7426 0
      vertex -9.76629 20.0212 0
    endloop
  endfacet
  facet normal 0.207913 0.978147 -0
    outer loop
      vertex -9.76629 20.0212 0
      vertex -10.3793 20.1515 70
      vertex -9.76629 20.0212 70
    endloop
  endfacet
  facet normal 0.207913 0.978147 0
    outer loop
      vertex -10.3793 20.1515 70
      vertex -9.76629 20.0212 0
      vertex -10.3793 20.1515 0
    endloop
  endfacet
  facet normal -0.714409 0.699728 0
    outer loop
      vertex -12.5798 19.1718 0
      vertex -12.1413 19.6195 70
      vertex -12.1413 19.6195 0
    endloop
  endfacet
  facet normal -0.714409 0.699728 0
    outer loop
      vertex -12.1413 19.6195 70
      vertex -12.5798 19.1718 0
      vertex -12.5798 19.1718 70
    endloop
  endfacet
  facet normal 0.937288 0.348555 0
    outer loop
      vertex -8.15451 18.2311 70
      vertex -8.37295 18.8185 0
      vertex -8.37295 18.8185 70
    endloop
  endfacet
  facet normal 0.937288 0.348555 0
    outer loop
      vertex -8.37295 18.8185 0
      vertex -8.15451 18.2311 70
      vertex -8.15451 18.2311 0
    endloop
  endfacet
  facet normal -0.894427 0.447214 0
    outer loop
      vertex 1.69101 4.7972 0
      vertex 39.9327 81.2805 70
      vertex 39.9327 81.2805 0
    endloop
  endfacet
  facet normal -0.894427 0.447214 0
    outer loop
      vertex 39.9327 81.2805 70
      vertex 1.69101 4.7972 0
      vertex 1.69101 4.7972 70
    endloop
  endfacet
  facet normal 0.126808 -0.991927 0
    outer loop
      vertex 83.8146 -4.77526 0
      vertex 85.0725 -4.61445 70
      vertex 83.8146 -4.77526 70
    endloop
  endfacet
  facet normal 0.126808 -0.991927 0
    outer loop
      vertex 85.0725 -4.61445 70
      vertex 83.8146 -4.77526 0
      vertex 85.0725 -4.61445 0
    endloop
  endfacet
  facet normal 0 -1 0
    outer loop
      vertex 4.99496 -4.77526 0
      vertex 83.8146 -4.77526 70
      vertex 4.99496 -4.77526 70
    endloop
  endfacet
  facet normal 0 -1 -0
    outer loop
      vertex 83.8146 -4.77526 70
      vertex 4.99496 -4.77526 0
      vertex 83.8146 -4.77526 0
    endloop
  endfacet
  facet normal 0.593769 -0.804635 0
    outer loop
      vertex 86.2494 -4.14235 0
      vertex 87.2698 -3.38936 70
      vertex 86.2494 -4.14235 70
    endloop
  endfacet
  facet normal 0.593769 -0.804635 0
    outer loop
      vertex 87.2698 -3.38936 70
      vertex 86.2494 -4.14235 0
      vertex 87.2698 -3.38936 0
    endloop
  endfacet
  facet normal 0.24359 0.969878 -0
    outer loop
      vertex 46.2084 83.7077 0
      vertex 45.0183 84.0066 70
      vertex 46.2084 83.7077 70
    endloop
  endfacet
  facet normal 0.24359 0.969878 0
    outer loop
      vertex 45.0183 84.0066 70
      vertex 46.2084 83.7077 0
      vertex 45.0183 84.0066 0
    endloop
  endfacet
  facet normal 0.996625 0.0820913 0
    outer loop
      vertex 88.8095 9.53674e-06 70
      vertex 88.7054 1.26383 0
      vertex 88.7054 1.26383 70
    endloop
  endfacet
  facet normal 0.996625 0.0820913 0
    outer loop
      vertex 88.7054 1.26383 0
      vertex 88.8095 9.53674e-06 70
      vertex 88.8095 9.53674e-06 0
    endloop
  endfacet
  facet normal -0.243571 0.969883 0
    outer loop
      vertex 43.7913 84.0066 0
      vertex 42.6011 83.7077 70
      vertex 43.7913 84.0066 70
    endloop
  endfacet
  facet normal -0.243571 0.969883 0
    outer loop
      vertex 42.6011 83.7077 70
      vertex 43.7913 84.0066 0
      vertex 42.6011 83.7077 0
    endloop
  endfacet
  facet normal 0.910423 -0.413678 0
    outer loop
      vertex 88.0678 -2.4039 70
      vertex 88.5924 -1.24936 0
      vertex 88.5924 -1.24936 70
    endloop
  endfacet
  facet normal 0.910423 -0.413678 0
    outer loop
      vertex 88.5924 -1.24936 0
      vertex 88.0678 -2.4039 70
      vertex 88.0678 -2.4039 0
    endloop
  endfacet
  facet normal -0.996624 0.0820989 0
    outer loop
      vertex 6.67572e-06 9.53674e-06 0
      vertex 6.87039e-06 1.18999e-05 70
      vertex 6.87039e-06 1.18999e-05 0
    endloop
  endfacet
  facet normal -0.996624 0.0820989 0
    outer loop
      vertex 6.87039e-06 1.18999e-05 70
      vertex 6.67572e-06 9.53674e-06 0
      vertex 6.67572e-06 9.53674e-06 70
    endloop
  endfacet
  facet normal -0.372288 -0.928117 0
    outer loop
      vertex 2.56013 -4.14235 0
      vertex 3.73708 -4.61445 70
      vertex 2.56013 -4.14235 70
    endloop
  endfacet
  facet normal -0.372288 -0.928117 -0
    outer loop
      vertex 3.73708 -4.61445 70
      vertex 2.56013 -4.14235 0
      vertex 3.73708 -4.61445 0
    endloop
  endfacet
  facet normal 0.894427 0.447213 0
    outer loop
      vertex 88.2867 2.46081 70
      vertex 48.8769 81.2805 0
      vertex 48.8769 81.2805 70
    endloop
  endfacet
  facet normal 0.894427 0.447213 0
    outer loop
      vertex 48.8769 81.2805 0
      vertex 88.2867 2.46081 70
      vertex 88.2867 2.46081 0
    endloop
  endfacet
  facet normal 0.832764 0.553628 0
    outer loop
      vertex 48.8769 81.2805 70
      vertex 48.1976 82.3023 0
      vertex 48.1976 82.3023 70
    endloop
  endfacet
  facet normal 0.832764 0.553628 0
    outer loop
      vertex 48.1976 82.3023 0
      vertex 48.8769 81.2805 70
      vertex 48.8769 81.2805 0
    endloop
  endfacet
  facet normal -0.985224 -0.171274 0
    outer loop
      vertex 0.2172 -1.24936 0
      vertex 6.67572e-06 9.53674e-06 70
      vertex 6.67572e-06 9.53674e-06 0
    endloop
  endfacet
  facet normal -0.985224 -0.171274 0
    outer loop
      vertex 6.67572e-06 9.53674e-06 70
      vertex 0.2172 -1.24936 0
      vertex 0.2172 -1.24936 70
    endloop
  endfacet
  facet normal -0.12681 -0.991927 0
    outer loop
      vertex 3.73708 -4.61445 0
      vertex 4.99496 -4.77526 70
      vertex 3.73708 -4.61445 70
    endloop
  endfacet
  facet normal -0.12681 -0.991927 -0
    outer loop
      vertex 4.99496 -4.77526 70
      vertex 3.73708 -4.61445 0
      vertex 4.99496 -4.77526 0
    endloop
  endfacet
  facet normal 0.672904 0.73973 -0
    outer loop
      vertex 48.1976 82.3023 0
      vertex 47.2899 83.128 70
      vertex 48.1976 82.3023 70
    endloop
  endfacet
  facet normal 0.672904 0.73973 0
    outer loop
      vertex 47.2899 83.128 70
      vertex 48.1976 82.3023 0
      vertex 47.2899 83.128 0
    endloop
  endfacet
  facet normal 0.372301 -0.928112 0
    outer loop
      vertex 85.0725 -4.61445 0
      vertex 86.2494 -4.14235 70
      vertex 85.0725 -4.61445 70
    endloop
  endfacet
  facet normal 0.372301 -0.928112 0
    outer loop
      vertex 86.2494 -4.14235 70
      vertex 85.0725 -4.61445 0
      vertex 86.2494 -4.14235 0
    endloop
  endfacet
  facet normal -0.832802 0.553571 0
    outer loop
      vertex 39.9327 81.2805 0
      vertex 40.6119 82.3023 70
      vertex 40.6119 82.3023 0
    endloop
  endfacet
  facet normal -0.832802 0.553571 0
    outer loop
      vertex 40.6119 82.3023 70
      vertex 39.9327 81.2805 0
      vertex 39.9327 81.2805 70
    endloop
  endfacet
  facet normal 0 1 -0
    outer loop
      vertex 45.0183 84.0066 0
      vertex 43.7913 84.0066 70
      vertex 45.0183 84.0066 70
    endloop
  endfacet
  facet normal 0 1 0
    outer loop
      vertex 43.7913 84.0066 70
      vertex 45.0183 84.0066 0
      vertex 43.7913 84.0066 0
    endloop
  endfacet
  facet normal 0.472427 0.88137 -0
    outer loop
      vertex 47.2899 83.128 0
      vertex 46.2084 83.7077 70
      vertex 47.2899 83.128 70
    endloop
  endfacet
  facet normal 0.472427 0.88137 0
    outer loop
      vertex 46.2084 83.7077 70
      vertex 47.2899 83.128 0
      vertex 46.2084 83.7077 0
    endloop
  endfacet
  facet normal 0.943918 0.33018 0
    outer loop
      vertex 88.7054 1.26383 70
      vertex 88.2867 2.46081 0
      vertex 88.2867 2.46081 70
    endloop
  endfacet
  facet normal 0.943918 0.33018 0
    outer loop
      vertex 88.2867 2.46081 0
      vertex 88.7054 1.26383 70
      vertex 88.7054 1.26383 0
    endloop
  endfacet
  facet normal -0.472461 0.881352 0
    outer loop
      vertex 42.6011 83.7077 0
      vertex 41.5197 83.128 70
      vertex 42.6011 83.7077 70
    endloop
  endfacet
  facet normal -0.472461 0.881352 0
    outer loop
      vertex 41.5197 83.128 70
      vertex 42.6011 83.7077 0
      vertex 41.5197 83.128 0
    endloop
  endfacet
  facet normal -0.672863 0.739767 0
    outer loop
      vertex 41.5197 83.128 0
      vertex 40.6119 82.3023 70
      vertex 41.5197 83.128 70
    endloop
  endfacet
  facet normal -0.672863 0.739767 0
    outer loop
      vertex 40.6119 82.3023 70
      vertex 41.5197 83.128 0
      vertex 40.6119 82.3023 0
    endloop
  endfacet
  facet normal 0.985236 -0.171202 0
    outer loop
      vertex 88.5924 -1.24936 70
      vertex 88.8095 9.53674e-06 0
      vertex 88.8095 9.53674e-06 70
    endloop
  endfacet
  facet normal 0.985236 -0.171202 0
    outer loop
      vertex 88.8095 9.53674e-06 0
      vertex 88.5924 -1.24936 70
      vertex 88.5924 -1.24936 0
    endloop
  endfacet
  facet normal -0.593792 -0.804619 0
    outer loop
      vertex 1.53979 -3.38936 0
      vertex 2.56013 -4.14235 70
      vertex 1.53979 -3.38936 70
    endloop
  endfacet
  facet normal -0.593792 -0.804619 -0
    outer loop
      vertex 2.56013 -4.14235 70
      vertex 1.53979 -3.38936 0
      vertex 2.56013 -4.14235 0
    endloop
  endfacet
  facet normal 0.77715 -0.629316 0
    outer loop
      vertex 87.2698 -3.38936 70
      vertex 88.0678 -2.4039 0
      vertex 88.0678 -2.4039 70
    endloop
  endfacet
  facet normal 0.77715 -0.629316 0
    outer loop
      vertex 88.0678 -2.4039 0
      vertex 87.2698 -3.38936 70
      vertex 87.2698 -3.38936 0
    endloop
  endfacet
  facet normal -0.910451 -0.413617 0
    outer loop
      vertex 0.741706 -2.4039 0
      vertex 0.2172 -1.24936 70
      vertex 0.2172 -1.24936 0
    endloop
  endfacet
  facet normal -0.910451 -0.413617 0
    outer loop
      vertex 0.2172 -1.24936 70
      vertex 0.741706 -2.4039 0
      vertex 0.741706 -2.4039 70
    endloop
  endfacet
  facet normal -0.777117 -0.629356 0
    outer loop
      vertex 1.53979 -3.38936 0
      vertex 0.741706 -2.4039 70
      vertex 0.741706 -2.4039 0
    endloop
  endfacet
  facet normal -0.777117 -0.629356 0
    outer loop
      vertex 0.741706 -2.4039 70
      vertex 1.53979 -3.38936 0
      vertex 1.53979 -3.38936 70
    endloop
  endfacet
endsolid OpenSCAD_Model
